<svg 
    xmlns="http://www.w3.org/2000/svg"  
    viewBox="0 0 70 35" 
    preserveAspectRatio="xMinYMid meet" 
    transform="scale(-1,-1) translate(0,-0.1)"
    >

    <defs>
        <clipPath id="clip-path">
            <path 
                transform="scale(3.5,3.5) translate(0.5,-10)"
                d=" M 100 3.9
                    L 8.58 3.9 
                    L 7.9903 4.3298 
                    C 6.7431 5.148 6.5044 5.8633 6.5021 8.7836 
                    L 6.403 10.92 
                    C 3.12 14.04 3.12 21.06 6.5325 24.18 
                    L 6.5153 26.52 
                    C 6.4919 29.2812 6.7135 29.9684 
                    7.9303 30.8615 
                    L 20 31.2 
                    L 100 31.2 Z" 
            />
        </clipPath>
    </defs>

    <!-- Edge Background -->
    <path 
        fill="rgb(233,233,233)"
        d=" M 8 0
            L 6 0 
            L 5.244 0.551 
            C 3.645 1.6 3.339 2.517 3.336 6.261 
            L 3.209 9 
            C -1 13 -1 22 3.375 26 
            L 3.353 29 
            C 3.323 32.54 3.607 33.421 5.167 34.566 
            L 6 35 
            L 8 35 "  
    />

    <!-- Background Design -->
    <path 
        fill="rgb(222,218,205)"
        transform-origin="center"
        transform="scale(0.45,0.45) translate(-49,-9.5)"
        clip-path="url(#clip-path)"
        d=" M 99 0 L 106 0 L 132 26 L 139.5 18.5 L 121 0 L 127 0 L 142.5 15.5 L 158 0 L 162 0 L 144.5 17.5 L 154.5 27.5 L 144.5 37.5 L 161 54 L 157 54 L 142.5 39.5 L 128 54 L 123 54 L 140 37 L 132 29 L 107 54 L 100 54 L 126.5 27.5 Z 
        M 142 20 L 134.5 27.5 L 142 35 L 149.5 27.5 Z 
        M 94 0 L 121.5 27.5 L 95 54 L 91 54 L 117.5 27.5 L 90 0 Z 
        M 0 0 L 5 0 L 18.5 13.5 L 26.5 5.5 L 39.5 18.5 L 58 0 L 63 0 L 42 21 L 48 27 Q 49.5 24.4 52.5 24 Q 52.5 23 51.5 22.5 Q 56.5 17.5 58.5 21.5 Q 55.5 22 55.5 25 Q 56 26 56.5 25 C 56.5 23 58.5 23 60.5 23 C 61.5 23 62 23 62.5 22 C 64.5 18 63.5 16.5 59.5 17 Q 57.5 17 56.5 15.5 Q 56 14.5 57.5 14.5 C 61.5 14.5 56.5 9 66 11 C 68.5 12 70.5 14 70.5 17 C 70.5 20 66.5 22.5 63.5 24.25 C 62.5 24.75 61.5 25 60.5 25 C 59.5 25 59.5 26 60.5 26 C 64.5 26 66.5 24 69.5 22 Q 70.5 21 71.5 21 C 73.5 21 73.5 22 73.5 24 Q 77.5 23 81.5 27.5 Q 77.5 32 73.5 31 C 73.5 33 73.5 34 71.5 34 Q 70.5 34 69.5 33 C 66.5 31 64.5 29 60.5 29 C 59.5 29 59.5 30 60.5 30 C 61.5 30 62.5 30.25 63.5 30.75 C 66.5 32.5 70.5 35 70.5 38 C 70.5 41 68.5 43 66 44 C 56.5 46 61.5 40.5 57.5 40.5 Q 56 40.5 56.5 39.5 Q 57.5 38 59.5 38 C 63.5 38.5 64.5 37 62.5 33 C 62 32 61.5 32 60.5 32 C 58.5 32 56.5 32 56.5 30 Q 56 29 55.5 30 Q 55.5 33 58.5 33.5 Q 56.5 37.5 51.5 32.5 Q 52.5 32 52.5 31 Q 49.5 30.5 48 28 L 42 34 L 62 54 L 57 54 L 39.5 36.5 L 26.5 49.5 L 18.5 41.5 L 6 54 L 1 54 L 16 39 L 4.5 27.5 L 16 16 Z 
        M 23 13 L 20.5 15.5 L 31.5 26.5 L 34 24 Z 
        M 18 18 L 8.5 27.5 L 18 37 L 27.5 27.5 Z 
        M 42.5 24.5 L 39.5 27.5 L 42.5 30.5 L 45.5 27.5 Z 
        M 31.5 28.5 L 20.5 39.5 L 23 42 L 34 31 Z 
        M 36 27.5 L 37 28.5 L 38 27.5 L 37 26.5 Z"
    />

    <!-- Inner Gold Border -->
    <path 
        fill="none"
        stroke="rgb(172,153,106)" stroke-width="2" stroke-linecap="round" vector-effect="non-scaling-stroke"
        d=" M 8.58 3.9 
            L 7.9903 4.3298 
            C 6.7431 5.148 6.5044 5.8633 6.5021 8.7836 
            L 6.403 10.92 
            C 3.12 14.04 3.12 21.06 6.5325 24.18 
            L 6.5153 26.52 
            C 6.4919 29.2812 6.7135 29.9684 
            7.9303 30.8615 
            L 20 31.2 " 
    />

    <!-- Leaves Border Glow -->
    <g
        transform="scale(0.2,0.2) translate(20,2)"
    >
        <path
            fill="rgb(233,233,233)"
            d=" M 60 0 
                C 62.5509 1.451 64.6784 3.2518 66.875 5.1875 
                C 67.7645 5.9116 67.7645 5.9116 68.6719 6.6504 
                C 71.2705 8.8808 72.8718 10.3086 73.5078 13.7383 
                C 73 16 73 16 71 18 
                C 68.5039 18.1953 68.5039 18.1953 65.5625 18.125 
                C 64.5944 18.107 63.6263 18.0889 62.6289 18.0703 
                C 61.7614 18.0471 60.8938 18.0239 60 18 
                C 59.01 18 58.02 18 57 18 
                C 57.729 19.2317 57.729 19.2317 58.4727 20.4883 
                C 60.2153 24.4949 60.4968 27.8966 60.4375 32.1875 
                C 60.4321 32.9327 60.4267 33.678 60.4211 34.4458 
                C 60.2324 41.3549 59.0524 48.3063 54.5313 53.7773 
                C 52.366 55.5062 50.6862 55.2178 48 55 
                C 47.9439 55.8875 47.9439 55.8875 47.8867 56.793 
                C 47.1514 65.6313 47.1514 65.6313 44 69 
                C 41.25 69.75 41.25 69.75 38 69 
                C 35.3994 66.8902 33.1841 64.533 31 62 
                C 30.3851 62.6265 29.7702 63.253 29.1367 63.8984 
                C 28.3285 64.7157 27.5202 65.533 26.6875 66.375 
                C 25.887 67.1871 25.0865 67.9992 24.2617 68.8359 
                C 21.2138 71.7523 19.713 72.95 15.4375 73.25 
                C 12 73 12 73 10 71 
                C 9.7571 69.1682 9.7571 69.1682 9.7695 66.9727 
                C 9.7715 66.1805 9.7734 65.3884 9.7754 64.5723 
                C 9.7876 63.744 9.7999 62.9158 9.8125 62.0625 
                C 9.8131 61.2381 9.8138 60.4138 9.8145 59.5645 
                C 9.8401 56.0551 9.8799 53.3604 11 50 
                C 10.0603 49.8182 10.0603 49.8182 9.1016 49.6328 
                C 8.2843 49.4652 7.467 49.2977 6.625 49.125 
                C 5.8129 48.9626 5.0008 48.8002 4.1641 48.6328 
                C 2 48 2 48 0 46 
                C -0.8494 40.9035 0.8393 37.9791 3.5547 33.8672 
                C 5 32 5 32 7.8125 29.5625 
                C 9.6373 18.612 10.4269 16.806 13.0625 13.6875 
                C 17.2785 9.1274 21.9876 5.846 28.2617 5.5742 
                C 29.7374 5.5912 31.2129 5.6292 32.6875 5.6875 
                C 33.8061 5.702 33.8061 5.702 34.9473 5.7168 
                C 40.403 5.8287 40.403 5.8287 43.1072 6.6045 
                C 43.7318 6.735 44.3564 6.8655 45 7 
                C 47.4146 5.3888 49.4331 3.51 51.5859 1.5664 
                C 54.7629 -0.4951 56.2676 -0.6499 60 0 Z "
        />
        <!-- Leaves -->
        <g 
            fill="rgb(172,153,106)"
        >
            <path
                d=" M 58.4922 4.6133 
                    C 61.0805 6.0445 63.1186 7.5834 65.3125 9.5625 
                    C 66.0099 10.1825 66.7073 10.8026 67.4258 11.4414 
                    C 68.205 12.2129 68.205 12.2129 69 13 
                    C 69 13.33 69 13.66 69 14 
                    C 62.4911 14.3755 62.4911 14.3755 59.875 12.375 
                    C 59.2563 11.9213 58.6375 11.4675 58 11 
                    C 46.5092 14.374 38.0627 27.3099 32 37 
                    C 30.2556 40.5094 30 43 30.125 46.75 
                    C 30.2153 53.5112 28.4496 58.3514 23.8359 63.3398 
                    C 20 67 18 67 14 69 
                    C 13.4236 60.11 12 48 23.25 42.375 
                    C 28 40 29.9398 36.1458 32.4375 31.375 
                    C 36.6082 23.4268 48.0649 2.0473 58.4922 4.6133 Z 
                    
                    M 69 14
                    L 69 20 
                    L 67 20
                    L 62 14 "
            />
            <path
                d=" M 49 17 
                C 53 19 55 22 56.3359 28.8477 
                    C 57 35 55.2164 42.8349 52 50 
                    C 51 52 51 52 49 50 
                    C 44.9818 43.8616 43 39 43 31 
                    C 43 24 46 21 49 17 Z "
            />
            <path
                d=" M 31 29 
                    C 28.8137 35.3062 24.6544 40.0234 18.7539 43.2148 
                    C 13.5107 45.1867 9.4527 45.0905 4 44 
                    C 5.5825 36.9668 10 31 15.9375 28 
                    C 18 27 24.8437 26.1375 29 28 Z "
            />
            <path
                d=" M 42 11 
                    C 40.7618 16.7784 38 21 33 23 
                    C 28 25 18 24 14 23 
                    C 14.7765 17.7583 18 14 21.9375 11.6875 
                    C 27.7159 8.5654 35.9116 8.9705 42 11 Z "
            />
            <path
                d=" M 36 33 
                    C 41.2002 37.638 43.7358 41.4576 44.25 48.3516 
                    C 44.3515 54.38 44.1701 59.3196 42 65 
                    C 38 63 33 58 32 52 
                    C 31 46 32 40 36 33 Z "
            />
        </g>
    </g>

    <path
        fill="none"
        stroke="rgb(172,153,106)" stroke-width="2" stroke-linecap="round" vector-effect="non-scaling-stroke"
        d=" M 18 3.9
            L 20 3.9 "
    />

</svg>