<svg 
    xmlns="http://www.w3.org/2000/svg"
    height="18" width="19"
    viewBox="0 0 19 18" 
    preserveAspectRatio="xMinYMin meet" 
    shape-rendering="crispEdges"
>
    <defs>
        <rect
            id="rect"
            x="0" y="0" width="1" height="1"
        />
        <use href="#rect" id="colour-0" fill="rgb(99,33,16)" />
        <use href="#rect" id="colour-1" fill="rgb(49,49,74)" />
        <use href="#rect" id="colour-2" fill="rgb(222,99,57)" />
        <use href="#rect" id="colour-3" fill="rgb(173,57,33)" />
        <use href="#rect" id="colour-4" fill="rgb(198,74,41)" />
        <use href="#rect" id="colour-5" fill="rgb(140,41,24)" />
        <use href="#rect" id="colour-6" fill="rgb(107,107,132)" />
        <use href="#rect" id="colour-7" fill="rgb(57,8,0)" />
        <use href="#rect" id="colour-8" fill="rgb(181,132,107)" />
        <use href="#rect" id="colour-9" fill="rgb(173,165,173)" />
        <use href="#rect" id="colour-10" fill="rgb(82,82,107)" />
        <use href="#rect" id="colour-11" fill="rgb(99,66,66)" />
        <use href="#rect" id="colour-12" fill="rgb(255,239,198)" />
        <use href="#rect" id="colour-13" fill="rgb(239,198,156)" />
        <use href="#rect" id="colour-14" fill="rgb(148,99,99)" />
        <use href="#rect" id="colour-15" fill="rgb(198,189,198)" />
        <use href="#rect" id="colour-16" fill="rgb(214,206,214)" />
        <use href="#rect" id="colour-17" fill="rgb(247,247,247)" />
        <use href="#rect" id="colour-18" fill="rgb(16,16,33)" />
        <use href="#rect" id="colour-19" fill="rgb(214,165,115)" />
        <use href="#rect" id="colour-20" fill="rgb(49,33,33)" />
        <use href="#rect" id="colour-21" fill="rgb(247,115,74)" />
        <use href="#rect" id="colour-22" fill="rgb(255,132,107)" />
        <use href="#rect" id="colour-23" fill="rgb(49,16,16)" />
        <use href="#rect" id="colour-24" fill="rgb(33,8,0)" />
    </defs>
    <use href="#colour-0" transform="translate(7,0)  scale(3,1)" />
    <use href="#colour-0" transform="translate(6,1)" />
    <use href="#colour-0" transform="translate(5,2)" />
    <use href="#colour-0" transform="translate(6,4)" />
    <use href="#colour-0" transform="translate(11,4)" />
    <use href="#colour-0" transform="translate(5,5)" />
    <use href="#colour-0" transform="translate(7,5)  scale(2,1)" />
    <use href="#colour-0" transform="translate(10,5)" />
    <use href="#colour-0" transform="translate(16,8)" />
    <use href="#colour-0" transform="translate(17,9)  scale(1,2)" />
    <use href="#colour-0" transform="translate(14,10)" />
    <use href="#colour-0" transform="translate(7,12)" />
    <use href="#colour-0" transform="translate(6,13)  scale(1,2)" />
    <use href="#colour-0" transform="translate(7,14)" />
    <use href="#colour-1" transform="translate(10,0)" />
    <use href="#colour-1" transform="translate(11,1)" />
    <use href="#colour-1" transform="translate(12,2)  scale(1,4)" />
    <use href="#colour-1" transform="translate(5,3)  scale(1,2)" />
    <use href="#colour-1" transform="translate(0,6)  scale(1,2)" />
    <use href="#colour-1" transform="translate(6,6)" />
    <use href="#colour-1" transform="translate(9,6)" />
    <use href="#colour-1" transform="translate(4,7)" />
    <use href="#colour-1" transform="translate(11,7)" />
    <use href="#colour-1" transform="translate(1,8)" />
    <use href="#colour-1" transform="translate(10,8)" />
    <use href="#colour-1" transform="translate(2,9)  scale(1,3)" />
    <use href="#colour-1" transform="translate(9,9)  scale(1,2)" />
    <use href="#colour-1" transform="translate(12,9)  scale(1,2)" />
    <use href="#colour-1" transform="translate(3,11)" />
    <use href="#colour-1" transform="translate(10,11)  scale(2,1)" />
    <use href="#colour-1" transform="translate(9,14)" />
    <use href="#colour-2" transform="translate(7,1)  scale(3,1)" />
    <use href="#colour-2" transform="translate(6,2)  scale(3,1)" />
    <use href="#colour-2" transform="translate(8,10)" />
    <use href="#colour-2" transform="translate(11,12)" />
    <use href="#colour-2" transform="translate(12,13)" />
    <use href="#colour-3" transform="translate(10,1)" />
    <use href="#colour-3" transform="translate(6,3)  scale(5,1)" />
    <use href="#colour-3" transform="translate(7,9)" />
    <use href="#colour-3" transform="translate(15,9)  scale(2,1)" />
    <use href="#colour-3" transform="translate(15,10)  scale(2,1)" />
    <use href="#colour-3" transform="translate(9,12)" />
    <use href="#colour-3" transform="translate(11,13)" />
    <use href="#colour-4" transform="translate(9,2)  scale(2,1)" />
    <use href="#colour-4" transform="translate(8,9)" />
    <use href="#colour-4" transform="translate(13,11)" />
    <use href="#colour-4" transform="translate(10,12)" />
    <use href="#colour-4" transform="translate(14,12)" />
    <use href="#colour-4" transform="translate(15,13)" />
    <use href="#colour-4" transform="translate(15,15)" />
    <use href="#colour-5" transform="translate(11,2)  scale(1,2)" />
    <use href="#colour-5" transform="translate(7,4)  scale(4,1)" />
    <use href="#colour-5" transform="translate(8,12)  scale(1,2)" />
    <use href="#colour-5" transform="translate(7,13)  scale(4,1)" />
    <use href="#colour-6" transform="translate(13,4)" />
    <use href="#colour-6" transform="translate(14,5)" />
    <use href="#colour-6" transform="translate(15,6)" />
    <use href="#colour-6" transform="translate(14,7)" />
    <use href="#colour-6" transform="translate(13,8)" />
    <use href="#colour-6" transform="translate(10,10)" />
    <use href="#colour-7" transform="translate(6,5)" />
    <use href="#colour-7" transform="translate(9,5)" />
    <use href="#colour-8" transform="translate(11,5)" />
    <use href="#colour-8" transform="translate(10,7)" />
    <use href="#colour-8" transform="translate(14,8)" />
    <use href="#colour-8" transform="translate(13,9)" />
    <use href="#colour-8" transform="translate(4,10)" />
    <use href="#colour-8" transform="translate(5,11)  scale(2,1)" />
    <use href="#colour-8" transform="translate(17,16)" />
    <use href="#colour-9" transform="translate(13,5)" />
    <use href="#colour-9" transform="translate(14,6)" />
    <use href="#colour-9" transform="translate(12,7)" />
    <use href="#colour-9" transform="translate(11,8)" />
    <use href="#colour-10" transform="translate(1,6)" />
    <use href="#colour-10" transform="translate(2,7)" />
    <use href="#colour-10" transform="translate(3,8)  scale(2,1)" />
    <use href="#colour-10" transform="translate(10,9)  scale(2,1)" />
    <use href="#colour-10" transform="translate(11,10)" />
    <use href="#colour-11" transform="translate(5,6)  scale(1,2)" />
    <use href="#colour-11" transform="translate(15,7)" />
    <use href="#colour-11" transform="translate(7,8)  scale(3,1)" />
    <use href="#colour-11" transform="translate(5,9)  scale(1,2)" />
    <use href="#colour-11" transform="translate(4,11)  scale(1,2)" />
    <use href="#colour-11" transform="translate(9,11)" />
    <use href="#colour-11" transform="translate(12,11)" />
    <use href="#colour-11" transform="translate(15,11)" />
    <use href="#colour-11" transform="translate(18,11)  scale(2,1)" />
    <use href="#colour-11" transform="translate(5,12)  scale(2,1)" />
    <use href="#colour-11" transform="translate(18,12)  scale(2,1)" />
    <use href="#colour-11" transform="translate(17,13)" />
    <use href="#colour-11" transform="translate(16,14)  scale(1,2)" />
    <use href="#colour-12" transform="translate(7,6)  scale(2,1)" />
    <use href="#colour-12" transform="translate(11,6)" />
    <use href="#colour-12" transform="translate(1,7)" />
    <use href="#colour-12" transform="translate(7,7)  scale(2,1)" />
    <use href="#colour-13" transform="translate(10,6)" />
    <use href="#colour-13" transform="translate(6,7)" />
    <use href="#colour-13" transform="translate(9,7)" />
    <use href="#colour-13" transform="translate(15,8)" />
    <use href="#colour-13" transform="translate(4,9)" />
    <use href="#colour-13" transform="translate(3,10)" />
    <use href="#colour-13" transform="translate(16,11)  scale(2,1)" />
    <use href="#colour-13" transform="translate(17,12)" />
    <use href="#colour-13" transform="translate(6,16)" />
    <use href="#colour-14" transform="translate(12,6)" />
    <use href="#colour-14" transform="translate(8,14)" />
    <use href="#colour-14" transform="translate(6,15)  scale(2,1)" />
    <use href="#colour-14" transform="translate(17,15)" />
    <use href="#colour-14" transform="translate(16,16)" />
    <use href="#colour-15" transform="translate(13,6)" />
    <use href="#colour-16" transform="translate(13,7)" />
    <use href="#colour-16" transform="translate(12,8)" />
    <use href="#colour-17" transform="translate(2,8)" />
    <use href="#colour-17" transform="translate(3,9)" />
    <use href="#colour-18" transform="translate(5,8)  scale(2,1)" />
    <use href="#colour-18" transform="translate(6,9)" />
    <use href="#colour-18" transform="translate(7,10)  scale(1,2)" />
    <use href="#colour-18" transform="translate(13,10)" />
    <use href="#colour-18" transform="translate(14,11)" />
    <use href="#colour-18" transform="translate(15,12)" />
    <use href="#colour-18" transform="translate(5,13)  scale(1,4)" />
    <use href="#colour-18" transform="translate(10,14)  scale(3,1)" />
    <use href="#colour-18" transform="translate(13,15)" />
    <use href="#colour-18" transform="translate(14,16)" />
    <use href="#colour-19" transform="translate(14,9)" />
    <use href="#colour-19" transform="translate(6,10)" />
    <use href="#colour-19" transform="translate(16,12)" />
    <use href="#colour-19" transform="translate(7,16)" />
    <use href="#colour-20" transform="translate(8,11)" />
    <use href="#colour-20" transform="translate(8,15)  scale(1,2)" />
    <use href="#colour-20" transform="translate(5,17)  scale(3,1)" />
    <use href="#colour-21" transform="translate(12,12)  scale(2,1)" />
    <use href="#colour-21" transform="translate(13,14)" />
    <use href="#colour-21" transform="translate(15,14)" />
    <use href="#colour-21" transform="translate(14,15)" />
    <use href="#colour-22" transform="translate(13,13)  scale(2,1)" />
    <use href="#colour-22" transform="translate(14,14)" />
    <use href="#colour-23" transform="translate(16,13)" />
    <use href="#colour-23" transform="translate(17,14)" />
    <use href="#colour-24" transform="translate(18,15)  scale(2,1)" />
    <use href="#colour-24" transform="translate(15,16)" />
    <use href="#colour-24" transform="translate(18,16)  scale(2,1)" />
    <use href="#colour-24" transform="translate(16,17)  scale(4,1)" />
</svg>