<svg 
    xmlns="http://www.w3.org/2000/svg"
    height="20" width="21"
    viewBox="0 0 21 20" 
    preserveAspectRatio="xMinYMin meet" 
    shape-rendering="crispEdges"
>
    <defs>
        <rect
            id="rect"
            x="0" y="0" width="1" height="1"
        />
        <use href="#rect" id="colour-0" fill="rgb(49,49,74)" />
        <use href="#rect" id="colour-1" fill="rgb(82,82,107)" />
        <use href="#rect" id="colour-2" fill="rgb(107,107,132)" />
        <use href="#rect" id="colour-3" fill="rgb(90,74,16)" />
        <use href="#rect" id="colour-4" fill="rgb(140,132,148)" />
        <use href="#rect" id="colour-5" fill="rgb(206,181,57)" />
        <use href="#rect" id="colour-6" fill="rgb(148,132,33)" />
        <use href="#rect" id="colour-7" fill="rgb(181,156,49)" />
        <use href="#rect" id="colour-8" fill="rgb(57,8,0)" />
        <use href="#rect" id="colour-9" fill="rgb(255,239,198)" />
        <use href="#rect" id="colour-10" fill="rgb(239,198,156)" />
        <use href="#rect" id="colour-11" fill="rgb(181,132,107)" />
        <use href="#rect" id="colour-12" fill="rgb(99,66,66)" />
        <use href="#rect" id="colour-13" fill="rgb(239,214,115)" />
        <use href="#rect" id="colour-14" fill="rgb(198,189,198)" />
        <use href="#rect" id="colour-15" fill="rgb(222,198,82)" />
        <use href="#rect" id="colour-16" fill="rgb(123,99,24)" />
        <use href="#rect" id="colour-17" fill="rgb(33,33,57)" />
        <use href="#rect" id="colour-18" fill="rgb(57,49,8)" />
        <use href="#rect" id="colour-19" fill="rgb(247,247,247)" />
        <use href="#rect" id="colour-20" fill="rgb(16,16,33)" />
        <use href="#rect" id="colour-21" fill="rgb(173,165,173)" />
        <use href="#rect" id="colour-22" fill="rgb(33,24,0)" />
        <use href="#rect" id="colour-23" fill="rgb(49,16,16)" />
        <use href="#rect" id="colour-24" fill="rgb(49,33,33)" />
    </defs>
    <use href="#colour-0" transform="translate(11,0)  scale(5,1)" />
    <use href="#colour-0" transform="translate(9,1)  scale(2,1)" />
    <use href="#colour-0" transform="translate(16,1)" />
    <use href="#colour-0" transform="translate(8,2)" />
    <use href="#colour-0" transform="translate(17,2)" />
    <use href="#colour-0" transform="translate(9,3)  scale(1,4)" />
    <use href="#colour-0" transform="translate(18,3)  scale(1,4)" />
    <use href="#colour-0" transform="translate(11,6)" />
    <use href="#colour-0" transform="translate(14,6)" />
    <use href="#colour-0" transform="translate(10,7)  scale(1,2)" />
    <use href="#colour-0" transform="translate(17,7)  scale(1,2)" />
    <use href="#colour-0" transform="translate(9,9)" />
    <use href="#colour-0" transform="translate(18,9)" />
    <use href="#colour-0" transform="translate(8,10)  scale(1,2)" />
    <use href="#colour-0" transform="translate(19,10)" />
    <use href="#colour-0" transform="translate(20,11)  scale(2,1)" />
    <use href="#colour-0" transform="translate(7,12)  scale(1,2)" />
    <use href="#colour-0" transform="translate(18,12)" />
    <use href="#colour-0" transform="translate(20,12)  scale(2,1)" />
    <use href="#colour-0" transform="translate(19,13)" />
    <use href="#colour-1" transform="translate(11,1)  scale(5,1)" />
    <use href="#colour-1" transform="translate(9,2)  scale(2,1)" />
    <use href="#colour-1" transform="translate(16,2)" />
    <use href="#colour-1" transform="translate(10,3)" />
    <use href="#colour-1" transform="translate(17,3)  scale(1,4)" />
    <use href="#colour-1" transform="translate(10,5)  scale(1,2)" />
    <use href="#colour-1" transform="translate(15,5)  scale(1,2)" />
    <use href="#colour-1" transform="translate(16,6)  scale(2,1)" />
    <use href="#colour-1" transform="translate(16,7)" />
    <use href="#colour-1" transform="translate(17,11)" />
    <use href="#colour-1" transform="translate(6,12)" />
    <use href="#colour-1" transform="translate(5,13)  scale(1,2)" />
    <use href="#colour-1" transform="translate(3,15)  scale(2,1)" />
    <use href="#colour-1" transform="translate(15,15)" />
    <use href="#colour-1" transform="translate(17,15)  scale(1,3)" />
    <use href="#colour-1" transform="translate(1,16)  scale(2,1)" />
    <use href="#colour-1" transform="translate(10,16)" />
    <use href="#colour-1" transform="translate(16,16)  scale(3,1)" />
    <use href="#colour-1" transform="translate(0,17)" />
    <use href="#colour-1" transform="translate(9,17)" />
    <use href="#colour-1" transform="translate(11,17)" />
    <use href="#colour-1" transform="translate(10,18)" />
    <use href="#colour-2" transform="translate(11,2)" />
    <use href="#colour-2" transform="translate(15,2)" />
    <use href="#colour-2" transform="translate(16,3)" />
    <use href="#colour-2" transform="translate(16,5)" />
    <use href="#colour-2" transform="translate(17,10)" />
    <use href="#colour-2" transform="translate(19,11)" />
    <use href="#colour-2" transform="translate(10,12)" />
    <use href="#colour-2" transform="translate(8,13)" />
    <use href="#colour-2" transform="translate(8,15)" />
    <use href="#colour-2" transform="translate(10,17)" />
    <use href="#colour-3" transform="translate(12,2)  scale(2,1)" />
    <use href="#colour-3" transform="translate(11,3)" />
    <use href="#colour-3" transform="translate(14,3)" />
    <use href="#colour-3" transform="translate(10,4)" />
    <use href="#colour-3" transform="translate(15,4)  scale(2,1)" />
    <use href="#colour-3" transform="translate(15,10)" />
    <use href="#colour-3" transform="translate(11,11)" />
    <use href="#colour-3" transform="translate(18,14)" />
    <use href="#colour-3" transform="translate(10,15)" />
    <use href="#colour-4" transform="translate(14,2)" />
    <use href="#colour-4" transform="translate(15,3)" />
    <use href="#colour-4" transform="translate(16,8)" />
    <use href="#colour-4" transform="translate(17,9)" />
    <use href="#colour-4" transform="translate(16,10)" />
    <use href="#colour-4" transform="translate(18,11)" />
    <use href="#colour-4" transform="translate(8,12)" />
    <use href="#colour-4" transform="translate(9,13)" />
    <use href="#colour-4" transform="translate(11,15)  scale(1,2)" />
    <use href="#colour-5" transform="translate(12,3)  scale(1,2)" />
    <use href="#colour-5" transform="translate(13,4)" />
    <use href="#colour-5" transform="translate(10,9)" />
    <use href="#colour-5" transform="translate(13,13)  scale(2,1)" />
    <use href="#colour-5" transform="translate(12,14)" />
    <use href="#colour-5" transform="translate(15,14)" />
    <use href="#colour-6" transform="translate(13,3)" />
    <use href="#colour-6" transform="translate(11,4)" />
    <use href="#colour-6" transform="translate(13,5)" />
    <use href="#colour-6" transform="translate(12,6)" />
    <use href="#colour-6" transform="translate(11,9)" />
    <use href="#colour-6" transform="translate(12,10)  scale(3,1)" />
    <use href="#colour-6" transform="translate(9,11)  scale(2,1)" />
    <use href="#colour-6" transform="translate(12,12)" />
    <use href="#colour-6" transform="translate(11,13)" />
    <use href="#colour-7" transform="translate(14,4)" />
    <use href="#colour-7" transform="translate(12,5)" />
    <use href="#colour-7" transform="translate(12,9)" />
    <use href="#colour-7" transform="translate(15,9)" />
    <use href="#colour-7" transform="translate(13,12)  scale(2,1)" />
    <use href="#colour-7" transform="translate(12,13)" />
    <use href="#colour-7" transform="translate(15,13)" />
    <use href="#colour-7" transform="translate(11,14)" />
    <use href="#colour-7" transform="translate(16,14)" />
    <use href="#colour-8" transform="translate(11,5)" />
    <use href="#colour-8" transform="translate(14,5)" />
    <use href="#colour-9" transform="translate(13,6)  scale(1,2)" />
    <use href="#colour-9" transform="translate(12,7)  scale(2,1)" />
    <use href="#colour-10" transform="translate(11,7)" />
    <use href="#colour-10" transform="translate(14,7)" />
    <use href="#colour-10" transform="translate(13,11)  scale(2,1)" />
    <use href="#colour-11" transform="translate(15,7)" />
    <use href="#colour-11" transform="translate(12,11)" />
    <use href="#colour-11" transform="translate(15,11)" />
    <use href="#colour-12" transform="translate(11,8)  scale(5,1)" />
    <use href="#colour-13" transform="translate(13,9)  scale(2,1)" />
    <use href="#colour-14" transform="translate(16,9)" />
    <use href="#colour-14" transform="translate(18,10)" />
    <use href="#colour-14" transform="translate(9,12)" />
    <use href="#colour-14" transform="translate(19,12)" />
    <use href="#colour-14" transform="translate(7,14)  scale(2,1)" />
    <use href="#colour-14" transform="translate(6,15)" />
    <use href="#colour-14" transform="translate(5,16)" />
    <use href="#colour-14" transform="translate(3,17)" />
    <use href="#colour-15" transform="translate(9,10)  scale(2,1)" />
    <use href="#colour-15" transform="translate(13,14)  scale(2,1)" />
    <use href="#colour-16" transform="translate(11,10)" />
    <use href="#colour-16" transform="translate(11,12)" />
    <use href="#colour-16" transform="translate(15,12)" />
    <use href="#colour-16" transform="translate(16,13)" />
    <use href="#colour-16" transform="translate(10,14)" />
    <use href="#colour-16" transform="translate(17,14)" />
    <use href="#colour-17" transform="translate(16,11)" />
    <use href="#colour-17" transform="translate(17,12)" />
    <use href="#colour-18" transform="translate(16,12)" />
    <use href="#colour-18" transform="translate(17,13)" />
    <use href="#colour-19" transform="translate(6,13)  scale(1,2)" />
    <use href="#colour-19" transform="translate(5,15)" />
    <use href="#colour-19" transform="translate(7,15)" />
    <use href="#colour-19" transform="translate(3,16)  scale(2,1)" />
    <use href="#colour-19" transform="translate(1,17)  scale(2,1)" />
    <use href="#colour-20" transform="translate(10,13)" />
    <use href="#colour-20" transform="translate(9,14)  scale(1,3)" />
    <use href="#colour-20" transform="translate(8,17)  scale(1,4)" />
    <use href="#colour-21" transform="translate(12,15)  scale(1,2)" />
    <use href="#colour-21" transform="translate(16,15)" />
    <use href="#colour-21" transform="translate(18,17)" />
    <use href="#colour-21" transform="translate(9,18)" />
    <use href="#colour-22" transform="translate(13,15)  scale(2,1)" />
    <use href="#colour-22" transform="translate(18,15)" />
    <use href="#colour-22" transform="translate(8,16)" />
    <use href="#colour-22" transform="translate(13,16)" />
    <use href="#colour-22" transform="translate(15,16)" />
    <use href="#colour-22" transform="translate(19,16)  scale(1,3)" />
    <use href="#colour-22" transform="translate(5,17)" />
    <use href="#colour-22" transform="translate(16,17)" />
    <use href="#colour-22" transform="translate(17,18)  scale(3,1)" />
    <use href="#colour-23" transform="translate(6,16)  scale(2,1)" />
    <use href="#colour-23" transform="translate(4,17)" />
    <use href="#colour-23" transform="translate(0,18)  scale(4,1)" />
    <use href="#colour-24" transform="translate(12,17)" />
    <use href="#colour-24" transform="translate(11,18)" />
    <use href="#colour-24" transform="translate(9,19)  scale(2,1)" />
</svg>