<svg id="three-diamonds-white" xmlns="http://www.w3.org/2000/svg" viewBox="0 0 1 0.519" height="50px" width="150px">
    <g fill="rgb(225,227,224)">
        <path d="M 0 0.2595 L 0.1899 0.0696 L 0.3101 0.1899 L 0.5000 0.0000 L 0.6899 0.1899 L 0.8101 0.0696 L 1.0000 0.2595 L 0.8101 0.4494 L 0.6899 0.3291 L 0.5 0.519 L 0.3101 0.3291 L 0.1899 0.4494 Z 
            M 0.2279 0.3860 L 0.2975 0.3164 L 0.2405 0.2595 L 0.2975 0.2025 L 0.2279 0.1329 L 0.1013 0.2595 Z 
            M 0.3228 0.2025 L 0.3798 0.2595 L 0.3228 0.3164 L 0.5000 0.4937 L 0.6772 0.3164 L 0.6203 0.2595 L 0.6772 0.2025 L 0.5000 0.0254 L 0.3228 0.2025 Z 
            M 0.7025 0.3164 L 0.7722 0.3860 L 0.8987 0.2595 L 0.7722 0.1329 L 0.7025 0.2025 L 0.7595 0.2595 L 0.7025 0.3164 Z" />
    </g>
</svg>