<svg 
    xmlns="http://www.w3.org/2000/svg" 
    viewBox="0 0 26 35"
	transform="scale(-1,-1)"

>
	<g
		transform-origin="center"
    	transform="translate(-4.5,-4.5) rotate(90)"
	>
		<path 
			d="M 17.445 26 C 18.8 22 20.1 20.5 21 19 Q 23 16 26 16 Q 31 17 29.5 21.5 C 29 23 26 22 26 20 Q 23 20 24 23 T 28 26 T 33 24 C 35 22 35 17 33 15.5 L 17.5 0 L 2 15.5 C 0 17 0 22 2 24 Q 4 26 7 26 T 11 23 Q 12 20 9 20 C 9 22 6 23 5.5 21.5 Q 4 17 9 16 Q 12 16 14 19 C 15 21.8 14.7 23.3 14.078 26 Z M 17.5 17 C 16 15 13 13 9 12 C 17 13 18 13 26 12 C 22 13 19 15 17.5 17 M 15 9 L 17.5 5 L 20 9 Z" 
			fill="#79696A"
		/>
	</g>
</svg>