<svg 
    xmlns="http://www.w3.org/2000/svg" 
    width="100%"
    height="35"
    preserveAspectRatio="none"
>
    <defs>
        <pattern 
            id="pattern"
            patternUnits="userSpaceOnUse"
            patternTransform="scale(0.4,1)"
            x="0" y="0" width="49" height="100%"
        >
            <g
                transform="translate(49,0) rotate(90)"
            >
                <path 
                    d="M 19 24.5 C 16.8 18 14.25 10 17.1 0 L 13.8 0 C 13.6 1 13.4 2 13 4 Q 11 13 16 24.5 Z M 21 20.5 Q 27 10 21 0.5 Q 19 -1 20 4 Q 21 10 20 17 Q 19 22 21 20.5 M 13.8 0 "
                    fill="#79696A"
                    preserveAspectRatio="xMidYMid meet"
                />
                <path
                    d="M 13.8 49 C 16 42.5 18.55 34.5 16 24.5 L 19 24.5 C 19.2 25.5 19.4 26.5 19.8 28.5 Q 21.8 37.5 16.8 49 Z M 11.8 45 Q 5.8 34.5 11.8 25 Q 13.8 23.5 12.8 28.5 Q 11.8 34.5 12.8 41.5 Q 13.8 46.5 11.8 45 M 19 24.5"
                    fill="#79696A"
                    preserveAspectRatio="xMidYMid meet"
                />
            </g>
        </pattern>
    </defs>

    <rect
        x="0" y="0" width="100%" height="100%"
        fill="url(#pattern)"
    />
</svg>