<svg 
    xmlns="http://www.w3.org/2000/svg"
    height="28" width="24"
    viewBox="0 0 24 28" 
    preserveAspectRatio="xMinYMin meet" 
    shape-rendering="crispEdges"
>
    <defs>
        <rect
            id="rect"
            x="0" y="0" width="1" height="1"
        />
        <use href="#rect" id="colour-0" fill="rgb(123,82,82)" />
        <use href="#rect" id="colour-1" fill="rgb(148,99,99)" />
        <use href="#rect" id="colour-2" fill="rgb(99,66,66)" />
        <use href="#rect" id="colour-3" fill="rgb(165,115,99)" />
        <use href="#rect" id="colour-4" fill="rgb(181,132,107)" />
        <use href="#rect" id="colour-5" fill="rgb(214,165,115)" />
        <use href="#rect" id="colour-6" fill="rgb(239,198,156)" />
        <use href="#rect" id="colour-7" fill="rgb(255,239,198)" />
        <use href="#rect" id="colour-8" fill="rgb(74,33,132)" />
        <use href="#rect" id="colour-9" fill="rgb(57,8,0)" />
        <use href="#rect" id="colour-10" fill="rgb(107,49,181)" />
        <use href="#rect" id="colour-11" fill="rgb(247,247,247)" />
        <use href="#rect" id="colour-12" fill="rgb(140,74,231)" />
        <use href="#rect" id="colour-13" fill="rgb(33,8,82)" />
        <use href="#rect" id="colour-14" fill="rgb(0,74,57)" />
        <use href="#rect" id="colour-15" fill="rgb(66,66,90)" />
        <use href="#rect" id="colour-16" fill="rgb(90,214,165)" />
        <use href="#rect" id="colour-17" fill="rgb(41,173,132)" />
        <use href="#rect" id="colour-18" fill="rgb(8,132,90)" />
        <use href="#rect" id="colour-19" fill="rgb(24,24,57)" />
        <use href="#rect" id="colour-20" fill="rgb(231,231,231)" />
        <use href="#rect" id="colour-21" fill="rgb(214,206,214)" />
        <use href="#rect" id="colour-22" fill="rgb(173,165,173)" />
        <use href="#rect" id="colour-23" fill="rgb(198,189,198)" />
        <use href="#rect" id="colour-24" fill="rgb(16,156,107)" />
        <use href="#rect" id="colour-25" fill="rgb(49,33,33)" />
        <use href="#rect" id="colour-26" fill="rgb(107,107,132)" />
        <use href="#rect" id="colour-27" fill="rgb(49,49,74)" />
        <use href="#rect" id="colour-28" fill="rgb(33,33,57)" />
        <use href="#rect" id="colour-29" fill="rgb(140,132,148)" />
        <use href="#rect" id="colour-30" fill="rgb(82,82,107)" />
        <use href="#rect" id="colour-31" fill="rgb(82,49,49)" />
        <use href="#rect" id="colour-32" fill="rgb(66,41,41)" />
        <use href="#rect" id="colour-33" fill="rgb(214,247,255)" />
        <use href="#rect" id="colour-34" fill="rgb(66,189,148)" />
        <use href="#rect" id="colour-35" fill="rgb(181,231,255)" />
    </defs>
    <use href="#colour-0" transform="translate(11,0)  scale(2,1)" />
    <use href="#colour-0" transform="translate(15,0)" />
    <use href="#colour-0" transform="translate(16,1)" />
    <use href="#colour-0" transform="translate(9,14)" />
    <use href="#colour-0" transform="translate(11,14)" />
    <use href="#colour-0" transform="translate(3,15)" />
    <use href="#colour-0" transform="translate(5,15)" />
    <use href="#colour-0" transform="translate(8,15)  scale(1,2)" />
    <use href="#colour-0" transform="translate(7,16)  scale(2,1)" />
    <use href="#colour-0" transform="translate(20,19)  scale(2,1)" />
    <use href="#colour-0" transform="translate(6,20)" />
    <use href="#colour-0" transform="translate(11,20)" />
    <use href="#colour-0" transform="translate(15,20)" />
    <use href="#colour-0" transform="translate(17,20)  scale(1,2)" />
    <use href="#colour-0" transform="translate(21,20)  scale(1,2)" />
    <use href="#colour-0" transform="translate(5,21)  scale(1,2)" />
    <use href="#colour-0" transform="translate(9,21)" />
    <use href="#colour-0" transform="translate(10,22)  scale(1,2)" />
    <use href="#colour-0" transform="translate(14,22)" />
    <use href="#colour-0" transform="translate(22,22)" />
    <use href="#colour-0" transform="translate(6,23)" />
    <use href="#colour-0" transform="translate(11,23)" />
    <use href="#colour-0" transform="translate(18,23)  scale(1,2)" />
    <use href="#colour-0" transform="translate(17,25)" />
    <use href="#colour-1" transform="translate(13,0)  scale(2,1)" />
    <use href="#colour-1" transform="translate(11,1)" />
    <use href="#colour-1" transform="translate(10,2)" />
    <use href="#colour-1" transform="translate(11,3)" />
    <use href="#colour-1" transform="translate(13,3)" />
    <use href="#colour-1" transform="translate(10,14)  scale(1,2)" />
    <use href="#colour-1" transform="translate(4,15)" />
    <use href="#colour-1" transform="translate(9,15)  scale(2,1)" />
    <use href="#colour-1" transform="translate(9,16)" />
    <use href="#colour-1" transform="translate(20,18)" />
    <use href="#colour-1" transform="translate(15,19)" />
    <use href="#colour-1" transform="translate(10,20)  scale(1,2)" />
    <use href="#colour-1" transform="translate(16,20)" />
    <use href="#colour-1" transform="translate(10,24)  scale(1,2)" />
    <use href="#colour-1" transform="translate(9,26)" />
    <use href="#colour-2" transform="translate(10,1)" />
    <use href="#colour-2" transform="translate(9,2)  scale(1,7)" />
    <use href="#colour-2" transform="translate(17,2)  scale(1,5)" />
    <use href="#colour-2" transform="translate(16,7)  scale(1,2)" />
    <use href="#colour-2" transform="translate(11,8)  scale(4,1)" />
    <use href="#colour-2" transform="translate(10,9)" />
    <use href="#colour-2" transform="translate(15,9)" />
    <use href="#colour-2" transform="translate(11,13)" />
    <use href="#colour-2" transform="translate(8,14)" />
    <use href="#colour-2" transform="translate(7,15)" />
    <use href="#colour-2" transform="translate(20,17)" />
    <use href="#colour-2" transform="translate(12,18)  scale(1,3)" />
    <use href="#colour-2" transform="translate(21,18)" />
    <use href="#colour-2" transform="translate(11,19)  scale(2,1)" />
    <use href="#colour-2" transform="translate(5,20)" />
    <use href="#colour-2" transform="translate(20,20)" />
    <use href="#colour-2" transform="translate(8,21)" />
    <use href="#colour-2" transform="translate(14,21)" />
    <use href="#colour-2" transform="translate(16,21)" />
    <use href="#colour-2" transform="translate(22,21)" />
    <use href="#colour-2" transform="translate(6,22)" />
    <use href="#colour-2" transform="translate(9,22)" />
    <use href="#colour-2" transform="translate(17,22)  scale(2,1)" />
    <use href="#colour-2" transform="translate(5,23)" />
    <use href="#colour-2" transform="translate(11,24)" />
    <use href="#colour-2" transform="translate(18,25)" />
    <use href="#colour-2" transform="translate(10,26)" />
    <use href="#colour-3" transform="translate(12,1)" />
    <use href="#colour-3" transform="translate(16,2)" />
    <use href="#colour-3" transform="translate(10,3)" />
    <use href="#colour-3" transform="translate(14,3)" />
    <use href="#colour-3" transform="translate(10,8)" />
    <use href="#colour-4" transform="translate(13,1)" />
    <use href="#colour-4" transform="translate(15,1)" />
    <use href="#colour-4" transform="translate(12,2)  scale(1,2)" />
    <use href="#colour-4" transform="translate(16,3)  scale(1,2)" />
    <use href="#colour-4" transform="translate(10,4)" />
    <use href="#colour-4" transform="translate(16,6)" />
    <use href="#colour-4" transform="translate(10,7)  scale(2,1)" />
    <use href="#colour-4" transform="translate(15,8)" />
    <use href="#colour-5" transform="translate(14,1)" />
    <use href="#colour-5" transform="translate(11,2)" />
    <use href="#colour-5" transform="translate(13,2)" />
    <use href="#colour-5" transform="translate(15,2)" />
    <use href="#colour-5" transform="translate(11,4)" />
    <use href="#colour-5" transform="translate(15,4)  scale(1,2)" />
    <use href="#colour-5" transform="translate(10,5)  scale(1,2)" />
    <use href="#colour-5" transform="translate(15,7)" />
    <use href="#colour-6" transform="translate(14,2)" />
    <use href="#colour-6" transform="translate(15,3)" />
    <use href="#colour-6" transform="translate(14,4)" />
    <use href="#colour-6" transform="translate(15,6)" />
    <use href="#colour-6" transform="translate(14,7)" />
    <use href="#colour-7" transform="translate(12,4)  scale(2,1)" />
    <use href="#colour-7" transform="translate(12,5)  scale(2,1)" />
    <use href="#colour-7" transform="translate(16,5)" />
    <use href="#colour-7" transform="translate(12,6)  scale(1,2)" />
    <use href="#colour-7" transform="translate(13,7)" />
    <use href="#colour-8" transform="translate(18,4)" />
    <use href="#colour-8" transform="translate(19,5)" />
    <use href="#colour-9" transform="translate(11,5)" />
    <use href="#colour-9" transform="translate(14,5)" />
    <use href="#colour-10" transform="translate(18,5)" />
    <use href="#colour-10" transform="translate(11,6)" />
    <use href="#colour-11" transform="translate(13,6)" />
    <use href="#colour-11" transform="translate(17,8)  scale(2,1)" />
    <use href="#colour-12" transform="translate(14,6)" />
    <use href="#colour-13" transform="translate(18,6)" />
    <use href="#colour-14" transform="translate(5,7)  scale(2,1)" />
    <use href="#colour-14" transform="translate(5,8)  scale(1,2)" />
    <use href="#colour-14" transform="translate(7,8)  scale(2,1)" />
    <use href="#colour-14" transform="translate(4,10)  scale(1,2)" />
    <use href="#colour-14" transform="translate(7,11)" />
    <use href="#colour-14" transform="translate(10,11)  scale(1,3)" />
    <use href="#colour-14" transform="translate(3,12)  scale(1,3)" />
    <use href="#colour-14" transform="translate(6,12)" />
    <use href="#colour-14" transform="translate(8,13)  scale(3,1)" />
    <use href="#colour-14" transform="translate(2,14)  scale(6,1)" />
    <use href="#colour-14" transform="translate(11,15)" />
    <use href="#colour-14" transform="translate(10,16)" />
    <use href="#colour-14" transform="translate(7,17)  scale(3,1)" />
    <use href="#colour-14" transform="translate(11,18)" />
    <use href="#colour-14" transform="translate(10,19)" />
    <use href="#colour-14" transform="translate(9,20)" />
    <use href="#colour-15" transform="translate(17,7)  scale(3,1)" />
    <use href="#colour-15" transform="translate(19,8)  scale(1,2)" />
    <use href="#colour-15" transform="translate(16,17)" />
    <use href="#colour-15" transform="translate(15,18)" />
    <use href="#colour-16" transform="translate(6,8)" />
    <use href="#colour-16" transform="translate(8,9)" />
    <use href="#colour-16" transform="translate(6,10)  scale(1,2)" />
    <use href="#colour-16" transform="translate(5,11)  scale(2,1)" />
    <use href="#colour-16" transform="translate(8,11)  scale(1,2)" />
    <use href="#colour-16" transform="translate(5,12)  scale(1,2)" />
    <use href="#colour-16" transform="translate(4,13)  scale(2,1)" />
    <use href="#colour-16" transform="translate(5,18)" />
    <use href="#colour-16" transform="translate(8,18)" />
    <use href="#colour-17" transform="translate(6,9)" />
    <use href="#colour-17" transform="translate(5,10)" />
    <use href="#colour-17" transform="translate(8,10)" />
    <use href="#colour-17" transform="translate(9,11)  scale(1,2)" />
    <use href="#colour-17" transform="translate(4,12)" />
    <use href="#colour-17" transform="translate(6,13)  scale(2,1)" />
    <use href="#colour-17" transform="translate(18,16)  scale(1,2)" />
    <use href="#colour-17" transform="translate(10,17)  scale(1,2)" />
    <use href="#colour-17" transform="translate(7,19)" />
    <use href="#colour-17" transform="translate(9,19)" />
    <use href="#colour-18" transform="translate(7,9)" />
    <use href="#colour-18" transform="translate(9,10)" />
    <use href="#colour-18" transform="translate(7,12)" />
    <use href="#colour-18" transform="translate(5,17)" />
    <use href="#colour-18" transform="translate(4,18)" />
    <use href="#colour-18" transform="translate(3,19)" />
    <use href="#colour-19" transform="translate(9,9)" />
    <use href="#colour-19" transform="translate(13,13)" />
    <use href="#colour-19" transform="translate(12,14)" />
    <use href="#colour-19" transform="translate(2,15)" />
    <use href="#colour-19" transform="translate(3,16)  scale(3,1)" />
    <use href="#colour-19" transform="translate(19,16)  scale(1,3)" />
    <use href="#colour-19" transform="translate(6,17)  scale(1,3)" />
    <use href="#colour-19" transform="translate(2,19)  scale(1,2)" />
    <use href="#colour-19" transform="translate(4,19)  scale(3,1)" />
    <use href="#colour-19" transform="translate(16,19)  scale(3,1)" />
    <use href="#colour-19" transform="translate(4,20)  scale(1,4)" />
    <use href="#colour-19" transform="translate(13,20)  scale(1,4)" />
    <use href="#colour-19" transform="translate(1,21)" />
    <use href="#colour-19" transform="translate(3,21)  scale(2,1)" />
    <use href="#colour-19" transform="translate(6,21)" />
    <use href="#colour-19" transform="translate(0,22)  scale(1,2)" />
    <use href="#colour-19" transform="translate(2,22)" />
    <use href="#colour-19" transform="translate(7,22)  scale(2,1)" />
    <use href="#colour-19" transform="translate(15,22)  scale(2,1)" />
    <use href="#colour-19" transform="translate(1,23)" />
    <use href="#colour-19" transform="translate(7,23)" />
    <use href="#colour-19" transform="translate(9,23)  scale(1,3)" />
    <use href="#colour-19" transform="translate(14,23)" />
    <use href="#colour-19" transform="translate(17,23)  scale(1,2)" />
    <use href="#colour-19" transform="translate(5,24)  scale(2,1)" />
    <use href="#colour-19" transform="translate(16,25)  scale(1,2)" />
    <use href="#colour-19" transform="translate(8,26)  scale(1,3)" />
    <use href="#colour-19" transform="translate(17,26)  scale(2,1)" />
    <use href="#colour-19" transform="translate(9,27)  scale(2,1)" />
    <use href="#colour-20" transform="translate(11,9)  scale(2,1)" />
    <use href="#colour-20" transform="translate(17,9)  scale(2,1)" />
    <use href="#colour-20" transform="translate(16,15)" />
    <use href="#colour-21" transform="translate(13,9)" />
    <use href="#colour-21" transform="translate(16,14)  scale(2,1)" />
    <use href="#colour-21" transform="translate(13,15)" />
    <use href="#colour-21" transform="translate(17,15)" />
    <use href="#colour-21" transform="translate(14,17)" />
    <use href="#colour-21" transform="translate(17,18)" />
    <use href="#colour-22" transform="translate(14,9)" />
    <use href="#colour-22" transform="translate(11,10)" />
    <use href="#colour-22" transform="translate(13,10)" />
    <use href="#colour-22" transform="translate(17,10)" />
    <use href="#colour-22" transform="translate(19,10)  scale(1,2)" />
    <use href="#colour-22" transform="translate(18,11)  scale(2,1)" />
    <use href="#colour-22" transform="translate(14,13)" />
    <use href="#colour-22" transform="translate(17,13)" />
    <use href="#colour-22" transform="translate(18,14)" />
    <use href="#colour-22" transform="translate(14,15)" />
    <use href="#colour-22" transform="translate(15,17)" />
    <use href="#colour-22" transform="translate(14,18)" />
    <use href="#colour-22" transform="translate(16,18)" />
    <use href="#colour-22" transform="translate(18,18)" />
    <use href="#colour-23" transform="translate(16,9)" />
    <use href="#colour-23" transform="translate(12,10)" />
    <use href="#colour-23" transform="translate(18,10)" />
    <use href="#colour-23" transform="translate(18,13)" />
    <use href="#colour-24" transform="translate(7,10)" />
    <use href="#colour-24" transform="translate(11,16)  scale(1,2)" />
    <use href="#colour-25" transform="translate(10,10)" />
    <use href="#colour-25" transform="translate(11,11)" />
    <use href="#colour-25" transform="translate(12,12)" />
    <use href="#colour-25" transform="translate(19,19)  scale(1,2)" />
    <use href="#colour-25" transform="translate(18,20)  scale(2,1)" />
    <use href="#colour-25" transform="translate(12,21)" />
    <use href="#colour-25" transform="translate(18,21)" />
    <use href="#colour-25" transform="translate(20,21)" />
    <use href="#colour-25" transform="translate(11,22)" />
    <use href="#colour-25" transform="translate(19,22)  scale(1,4)" />
    <use href="#colour-25" transform="translate(21,22)" />
    <use href="#colour-25" transform="translate(12,23)  scale(1,2)" />
    <use href="#colour-25" transform="translate(22,23)" />
    <use href="#colour-25" transform="translate(11,25)  scale(1,2)" />
    <use href="#colour-26" transform="translate(14,10)" />
    <use href="#colour-26" transform="translate(13,11)" />
    <use href="#colour-26" transform="translate(14,12)" />
    <use href="#colour-26" transform="translate(16,12)  scale(2,1)" />
    <use href="#colour-26" transform="translate(15,13)" />
    <use href="#colour-27" transform="translate(15,10)  scale(2,1)" />
    <use href="#colour-27" transform="translate(15,11)  scale(1,2)" />
    <use href="#colour-27" transform="translate(17,11)" />
    <use href="#colour-27" transform="translate(13,12)" />
    <use href="#colour-27" transform="translate(18,12)  scale(2,1)" />
    <use href="#colour-27" transform="translate(16,13)" />
    <use href="#colour-27" transform="translate(19,13)  scale(1,2)" />
    <use href="#colour-27" transform="translate(13,14)  scale(3,1)" />
    <use href="#colour-27" transform="translate(12,15)  scale(1,2)" />
    <use href="#colour-27" transform="translate(15,15)" />
    <use href="#colour-27" transform="translate(18,15)" />
    <use href="#colour-27" transform="translate(16,16)  scale(2,1)" />
    <use href="#colour-27" transform="translate(13,17)  scale(1,3)" />
    <use href="#colour-27" transform="translate(14,19)" />
    <use href="#colour-28" transform="translate(20,10)  scale(1,2)" />
    <use href="#colour-28" transform="translate(12,17)" />
    <use href="#colour-28" transform="translate(7,20)  scale(2,1)" />
    <use href="#colour-29" transform="translate(12,11)" />
    <use href="#colour-29" transform="translate(16,11)" />
    <use href="#colour-29" transform="translate(13,16)  scale(3,1)" />
    <use href="#colour-30" transform="translate(14,11)" />
    <use href="#colour-31" transform="translate(11,12)" />
    <use href="#colour-31" transform="translate(12,13)" />
    <use href="#colour-31" transform="translate(6,16)" />
    <use href="#colour-31" transform="translate(7,21)" />
    <use href="#colour-31" transform="translate(11,21)" />
    <use href="#colour-31" transform="translate(15,21)" />
    <use href="#colour-32" transform="translate(6,15)" />
    <use href="#colour-32" transform="translate(20,16)" />
    <use href="#colour-32" transform="translate(21,17)" />
    <use href="#colour-32" transform="translate(22,18)  scale(1,3)" />
    <use href="#colour-32" transform="translate(14,20)" />
    <use href="#colour-32" transform="translate(23,21)  scale(2,1)" />
    <use href="#colour-32" transform="translate(23,22)  scale(2,1)" />
    <use href="#colour-32" transform="translate(23,23)  scale(2,1)" />
    <use href="#colour-33" transform="translate(17,17)" />
    <use href="#colour-33" transform="translate(1,22)" />
    <use href="#colour-34" transform="translate(7,18)" />
    <use href="#colour-34" transform="translate(9,18)" />
    <use href="#colour-34" transform="translate(8,19)" />
    <use href="#colour-35" transform="translate(3,20)" />
    <use href="#colour-35" transform="translate(2,21)" />
</svg>