<svg 
    xmlns="http://www.w3.org/2000/svg"  
    viewBox="0 0 660 175" 
    preserveAspectRatio="xMinYMid meet" 
    transform="scale(-1,-1) translate(0,0.2)"
    >

    <defs>
        <!-- <linearGradient id="missionRow-main-right-leaves" x1="0%" y1="0%" x2="100%" y2="100%">
            <stop offset="0%" stop-color="rgb(246,210,132)"/>
            <stop offset="50%" stop-color="rgb(208,187,78)"/>
            <stop offset="100%" stop-color="rgb(166,109,28)"/>
        </linearGradient> -->
        <linearGradient id="missionRow-main-right-leaves" x1="0%" y1="0%" x2="100%" y2="100%">
            <stop offset="0%" stop-color="rgb(166,109,28)"/>
            <stop offset="50%" stop-color="rgb(208,187,78)"/>
            <stop offset="100%" stop-color="rgb(246,210,132)"/>
        </linearGradient>
        <linearGradient id="missionRow-main-right-border" x1="0%" y1="0%" x2="100%" y2="-20%">
            <stop offset="0%" stop-color="rgb(246,210,132)"/>
            <stop offset="30%" stop-color="rgb(208,187,78)"/>
            <stop offset="60%" stop-color="rgb(166,109,28)"/>
            <stop offset="100%" stop-color="rgb(208,187,78)"/>
        </linearGradient>
        <linearGradient id="missionRow-main-right-background-design" x1="0%" y1="0%" x2="100%" y2="0%">
            <stop offset="0%" stop-color="rgb(33,3,3,0.3)"/>
            <stop offset="90%" stop-color="rgb(33,3,3,0.3)"/>
            <stop offset="100%" stop-color="rgb(33,3,3,0.1)"/>
        </linearGradient>
    </defs>

    <!-- Red Background to cover uncovered part of image -->
    <g
        fill="rgb(98,8,8)"
    >
        <path
            d=" M 51 13
                L 78 13 L 84 8 L 90 13
                L 95 13
                L 95 160
                L 93 160 L 85 166 L 67 166 L 62 158
                L 51 158"
        />
    </g>

    <!-- Border Gold Lines and Red Background -->
    <g
        transform="translate(0,15) scale(4.15,4.15)"
    >
        <path
            fill="rgb(98,8,8)"
            transform="translate(2.4,0)"
            d=" M 10 0
                L 6 0 
                L 5.244 0.551 
                C 3.645 1.6 3.339 2.517 3.336 6.261 
                L 3.209 9 
                C -1 13 -1 22 3.375 26 
                L 3.353 29 
                C 3.323 32.54 3.607 33.421 5.167 34.566 
                L 6 35
                L 10 35 "
        />
        <!-- rgb(208,187,78) -->
        <path 
            fill="url(#missionRow-main-right-border)"
            d=" M 6 0 
                    L 5.244 0.551 
                    C 3.645 1.6 3.339 2.517 3.336 6.261 
                    L 3.209 9 
                    C -1 13 -1 22 3.375 26 
                    L 3.353 29 
                    C 3.323 32.54 3.607 33.421 5.167 34.566 
                    L 6 35 L 15 35 L 15 32.5 
                    L 6.16 32.5 
                    C 6.05 32 6 32 5.895 31 
                    L 12 31 L 12 30 L 5.855 30 
                    C 5.855 29.6667 5.855 29.3333 5.845 29 
                    L 12 29 L 12 28 L 5.8 28 
                    L 5.75 27 
                    L 12 27 L 12 26 L 5.8 26 
                    Q 5.27 25.5 4.89 25 
                    L 12 25 L 12 24 L 4.215 24 
                    Q 3.92 23.5 3.7 23 
                    L 12 23 L 12 22 L 3.305 22 
                    Q 3.135 21.5 3.007 21 
                    L 12 21 L 12 20 L 2.795 20 
                    Q 2.71 19.5 2.657 19 
                    L 12 19 L 12 18 L 2.59 18 
                    Q 2.58 17.5 2.594 17 
                    L 12 17 L 12 16 L 2.666 16 
                    Q 2.72 15.5 2.81 15 
                    L 12 15 L 12 14 L 3.03 14 
                    Q 3.16 13.5 3.334 13 
                    L 12 13 L 12 12 L 3.737 12 
                    Q 3.97 11.5 4.26 11 
                    L 12 11 L 12 10 L 4.95 10 
                    Q 5.33 9.5 5.875 9 
                    L 12 9 L 12 8 L 5.853 8 
                    L 5.853 7 L 12 7 L 12 6 
                    L 5.853 6 L 5.853 5 
                    L 12 5 L 12 4 L 5.88 4 
                    C 6 3 6 3 6.1 2.5 
                    L 12 2.5 L 12 0 Z"  
        />
    </g>

    <!-- Background design -->
    <path
        fill="url(#missionRow-main-right-background-design)"
        transform="scale(-2.2,2.2) translate(-300,0) translate(0,12.75)"
        d=" M 198.5 0 L 205.5 0 L 231.5 26 L 239 18.5 L 220.5 0 L 226.5 0 L 242 15.5 L 244 13.5 L 230.5 0 L 269 0 L 269 54 L 231.5 54 L 244 41.5 L 242 39.5 L 227.5 54 L 222.5 54 L 239.5 37 L 231.5 29 L 206.5 54 L 199.5 54 L 226 27.5 Z 
            M 246 15.5 L 244 17.5 L 254 27.5 L 244 37.5 L 246 39.5 L 258 27.5 Z 
            M 241.5 20 L 234 27.5 L 241.5 35 L 249 27.5 Z 
            M 193.5 0 L 221 27.5 L 194.5 54 L 190.5 54 L 217 27.5 L 189.5 0 Z
            
            M 99.5 0 L 104.5 0 L 118 13.5 L 126 5.5 L 139 18.5 L 157.5 0 L 162.5 0 L 141.5 21 L 147.5 27 Q 149 24.4 152 24 Q 152 23 151 22.5 Q 156 17.5 158 21.5 Q 155 22 155 25 Q 155.5 26 156 25 C 156 23 158 23 160 23 C 161 23 161.5 23 162 22 C 164 18 163 16.5 159 17 Q 157 17 156 15.5 Q 155.5 14.5 157 14.5 C 161 14.5 156 9 165.5 11 C 168 12 170 14 170 17 C 170 20 166 22.5 163 24.25 C 162 24.75 161 25 160 25 C 159 25 159 26 160 26 C 164 26 166 24 169 22 Q 170 21 171 21 C 173 21 173 22 173 24 Q 177 23 181 27.5 Q 177 32 173 31 C 173 33 173 34 171 34 Q 170 34 169 33 C 166 31 164 29 160 29 C 159 29 159 30 160 30 C 161 30 162 30.25 163 30.75 C 166 32.5 170 35 170 38 C 170 41 168 43 165.5 44 C 156 46 161 40.5 157 40.5 Q 155.5 40.5 156 39.5 Q 157 38 159 38 C 163 38.5 164 37 162 33 C 161.5 32 161 32 160 32 C 158 32 156 32 156 30 Q 155.5 29 155 30 Q 155 33 158 33.5 Q 156 37.5 151 32.5 Q 152 32 152 31 Q 149 30.5 147.5 28 L 141.5 34 L 161.5 54 L 156.5 54 L 139 36.5 L 126 49.5 L 118 41.5 L 105.5 54 L 100.5 54 L 115.5 39 L 104 27.5 L 115.5 16 Z 
            M 122.5 13 L 120 15.5 L 131 26.5 L 133.5 24 Z 
            M 117.5 18 L 108 27.5 L 117.5 37 L 127 27.5 Z 
            M 142 24.5 L 139 27.5 L 142 30.5 L 145 27.5 Z 
            M 131 28.5 L 120 39.5 L 122.5 42 L 133.5 31 Z 
            M 135.5 27.5 L 136.5 28.5 L 137.5 27.5 L 136.5 26.5 Z 
            
            M 31.5 0 L 4.5 27 L 31.5 54 L 27 54 L 0 27 L 27 0 Z "
    />

    <g
        transform="translate(20,0)"
    >
        <!-- Leaves Border -->
        <g
            transform-origin="center"
            fill="rgb(98,8,8)"
        >
            <path
                transform="scale(1.2,1.2) translate(16.5,0)"
                d=" M 46 6.0355 L 44.4201 6.0355 L 37.3787 0 Q 16.5 14 8.15 35 L 13.43 35 Q 22 17 37.3787 6.0355 L 42.4083 10.0592 L 46 9.9704 Z"
            />
            <path
                transform="scale(1.1,1.1) translate(16,7) rotate(-4)"
                d="M 37.3787 0.0296 C 34 4 -17 26 6.1953 128.787 L 8.2071 127.7811 C -11 33 35 9 37.3787 6.0651 Z "
            />
            <path
                transform="scale(1.6,1.6) translate(15,76)"
                d="M 0.3 1 C -0.8953 15.213 3.1047 21.213 19.1047 32.213 L 19.4124 27.1538 L 19.4124 27.1538 L 19.4124 21.1183 L 18.4065 16.0887 C 14.1047 7.213 13.3769 4.0177 2.3118 -0.0059 Z "
            />
            <path
                transform="scale(1.2,1.2) translate(42,135.5)"
                d="M 0 0 L 12.071 10.0592 L 19.1124 4.0237 L 20.48 4 L 20.48 0 L 17.1006 0 L 12.071 4.0237 L 7.0414 0 L 0 0 Z "
            />
            <path
                transform="scale(1.6,1.6) translate(5,5.5)"
                d="M 29 3.5 C 18 -3.5 14 1.5 0 12.5 C 15 14.5 25 14.5 29 3.5 "
            />
            <path
                transform="scale(1.6,1.6) translate(1.5,16)"
                d="M 26 2.5 C 20 -2.5 7 0.5 0 18.5 C 20 19.5 25 7.5 26 2.5 "
            />
            <path
                transform="scale(1.6,1.6) translate(-7,-25)"
                d="M 26.6175 57.518 C 21 56 12 55 7 82 C 28 74 28 64 26.6175 57.518 "
            />
            <path
                transform="scale(1.6,1.6) translate(5,48)"
                d="M 12.342 0 C 5.2 0.503 -2.8 3.503 1.2 31.503 C 14.2 18.503 17.2 8.503 12.342 0"
            />
            <path
                transform="scale(1.6,1.6) translate(6.5,67)"
                d="M 10.1479 -0.0001 C 2 1.3194 -4 14.3194 5 33.3194 C 18 21.3194 16 4.3194 10.1479 0"
            />
        </g>

        <!-- Leaves -->
        <g fill="url(#missionRow-main-right-leaves)">
            <path
                d="M 75 11.0651 L 71.4201 11.0651 L 64.3787 5.0296 C 61 9 10 31 33.1953 133.787 C 32 148 36 154 52 165 L 52.3077 159.9408 L 64.3787 170 L 71.4201 163.9645 L 75 163.9645 L 75 159.9408 L 69.4083 159.9408 L 64.3787 163.9645 L 59.3491 159.9408 L 52.3077 159.9408 L 52.3077 153.9053 L 75 153.9053 L 75 148.8757 L 51.3018 148.8757 C 47 140 46.2722 136.8047 35.2071 132.7811 C 16 38 62 14 64.3787 11.0651 L 69.4083 15.0888 L 75 15 Z "
            />
            <path
                d="M 62.3669 21.1243 L 75 21.1243 L 75 26.1538 L 63.3728 26.1538 "
            />
            <path
                d="M 58 18 C 67 21 67 33 57 49 C 49 30 53 22 58 18 "
            />
            <path
                d="M 48 16 C 37 9 33 14 19 25 C 34 27 44 27 48 16 "
            />
            <path
                d="M 36 34 C 30 29 17 32 10 50 C 30 51 35 39 36 34 "
            />
            <path
                d="M 42 41 C 50 41 54 56 47 72 C 33 58 38 45 42 41 "
            />
            <path
                d="M 26.6175 57.518 C 21 56 12 55 7 82 C 28 74 28 64 26.6175 57.518 "
            />
            <path
                d="M 34 70 C 42 72 50 76 46 99 C 36 92 29 81 34 70 "
            />
            <path
                d="M 24.142 84.497 C 17 85 9 88 13 116 C 26 103 29 93 24.142 84.497 "
            />
            <path
                d="M 33 107 C 46 106 51 109 56 131 C 33 124 32 114 33 107 "
            />
            <path
                d="M 25.1479 115.6805 C 17 117 11 130 20 149 C 33 137 31 120 25.1479 115.6806 "
            />
        </g>
    </g>

</svg>