<svg 
    xmlns="http://www.w3.org/2000/svg"
    height="22" width="16"
    viewBox="0 0 16 22" 
    preserveAspectRatio="xMinYMin meet" 
    shape-rendering="crispEdges"
>
    <defs>
        <rect
            id="rect"
            x="0" y="0" width="1" height="1"
        />
        <use href="#rect" id="colour-0" fill="rgb(140,41,24)" />
        <use href="#rect" id="colour-1" fill="rgb(222,99,57)" />
        <use href="#rect" id="colour-2" fill="rgb(99,33,16)" />
        <use href="#rect" id="colour-3" fill="rgb(255,132,107)" />
        <use href="#rect" id="colour-4" fill="rgb(198,74,41)" />
        <use href="#rect" id="colour-5" fill="rgb(255,156,132)" />
        <use href="#rect" id="colour-6" fill="rgb(173,57,33)" />
        <use href="#rect" id="colour-7" fill="rgb(66,16,8)" />
        <use href="#rect" id="colour-8" fill="rgb(49,49,74)" />
        <use href="#rect" id="colour-9" fill="rgb(247,115,74)" />
        <use href="#rect" id="colour-10" fill="rgb(181,132,107)" />
        <use href="#rect" id="colour-11" fill="rgb(214,165,115)" />
        <use href="#rect" id="colour-12" fill="rgb(148,99,99)" />
        <use href="#rect" id="colour-13" fill="rgb(16,16,33)" />
        <use href="#rect" id="colour-14" fill="rgb(33,8,0)" />
    </defs>
    <use href="#colour-0" transform="translate(7,0)" />
    <use href="#colour-0" transform="translate(6,1)" />
    <use href="#colour-0" transform="translate(5,2)" />
    <use href="#colour-0" transform="translate(4,3)  scale(1,3)" />
    <use href="#colour-0" transform="translate(10,5)" />
    <use href="#colour-0" transform="translate(8,6)  scale(1,2)" />
    <use href="#colour-0" transform="translate(10,7)  scale(1,2)" />
    <use href="#colour-0" transform="translate(9,8)  scale(2,1)" />
    <use href="#colour-0" transform="translate(10,10)" />
    <use href="#colour-0" transform="translate(3,11)" />
    <use href="#colour-0" transform="translate(9,11)" />
    <use href="#colour-0" transform="translate(13,11)" />
    <use href="#colour-0" transform="translate(8,12)" />
    <use href="#colour-0" transform="translate(14,12)" />
    <use href="#colour-0" transform="translate(1,13)  scale(3,1)" />
    <use href="#colour-0" transform="translate(5,13)  scale(2,1)" />
    <use href="#colour-0" transform="translate(1,14)  scale(2,1)" />
    <use href="#colour-0" transform="translate(10,14)" />
    <use href="#colour-0" transform="translate(2,15)" />
    <use href="#colour-0" transform="translate(8,15)" />
    <use href="#colour-0" transform="translate(3,16)" />
    <use href="#colour-0" transform="translate(5,16)  scale(3,1)" />
    <use href="#colour-0" transform="translate(6,17)  scale(1,3)" />
    <use href="#colour-0" transform="translate(11,17)" />
    <use href="#colour-0" transform="translate(3,18)" />
    <use href="#colour-0" transform="translate(5,18)  scale(3,1)" />
    <use href="#colour-0" transform="translate(12,18)" />
    <use href="#colour-0" transform="translate(2,19)" />
    <use href="#colour-0" transform="translate(4,19)  scale(5,1)" />
    <use href="#colour-0" transform="translate(4,20)" />
    <use href="#colour-0" transform="translate(9,20)" />
    <use href="#colour-1" transform="translate(7,1)" />
    <use href="#colour-1" transform="translate(6,2)" />
    <use href="#colour-1" transform="translate(8,2)" />
    <use href="#colour-1" transform="translate(5,4)" />
    <use href="#colour-1" transform="translate(8,4)" />
    <use href="#colour-1" transform="translate(6,5)" />
    <use href="#colour-1" transform="translate(7,6)  scale(1,2)" />
    <use href="#colour-1" transform="translate(5,8)  scale(2,1)" />
    <use href="#colour-1" transform="translate(4,9)" />
    <use href="#colour-1" transform="translate(10,9)" />
    <use href="#colour-1" transform="translate(11,10)" />
    <use href="#colour-1" transform="translate(5,11)" />
    <use href="#colour-1" transform="translate(13,12)" />
    <use href="#colour-1" transform="translate(12,13)" />
    <use href="#colour-1" transform="translate(11,14)" />
    <use href="#colour-1" transform="translate(11,19)" />
    <use href="#colour-1" transform="translate(7,20)" />
    <use href="#colour-2" transform="translate(8,1)" />
    <use href="#colour-2" transform="translate(9,2)" />
    <use href="#colour-2" transform="translate(12,9)" />
    <use href="#colour-2" transform="translate(13,10)" />
    <use href="#colour-2" transform="translate(15,13)  scale(2,1)" />
    <use href="#colour-2" transform="translate(7,14)  scale(1,2)" />
    <use href="#colour-2" transform="translate(15,14)  scale(2,1)" />
    <use href="#colour-2" transform="translate(10,15)" />
    <use href="#colour-2" transform="translate(8,16)  scale(1,3)" />
    <use href="#colour-2" transform="translate(11,16)" />
    <use href="#colour-2" transform="translate(9,19)" />
    <use href="#colour-3" transform="translate(7,2)" />
    <use href="#colour-3" transform="translate(6,3)  scale(1,2)" />
    <use href="#colour-3" transform="translate(8,3)" />
    <use href="#colour-3" transform="translate(7,4)" />
    <use href="#colour-3" transform="translate(4,6)" />
    <use href="#colour-3" transform="translate(6,6)" />
    <use href="#colour-3" transform="translate(5,7)" />
    <use href="#colour-3" transform="translate(7,11)" />
    <use href="#colour-3" transform="translate(11,11)  scale(2,1)" />
    <use href="#colour-3" transform="translate(11,12)" />
    <use href="#colour-4" transform="translate(5,3)" />
    <use href="#colour-4" transform="translate(9,4)  scale(1,3)" />
    <use href="#colour-4" transform="translate(5,5)" />
    <use href="#colour-4" transform="translate(8,5)  scale(2,1)" />
    <use href="#colour-4" transform="translate(7,8)" />
    <use href="#colour-4" transform="translate(5,9)" />
    <use href="#colour-4" transform="translate(9,9)" />
    <use href="#colour-4" transform="translate(8,10)" />
    <use href="#colour-4" transform="translate(2,12)" />
    <use href="#colour-4" transform="translate(10,13)" />
    <use href="#colour-4" transform="translate(13,13)  scale(2,1)" />
    <use href="#colour-4" transform="translate(12,14)  scale(3,1)" />
    <use href="#colour-4" transform="translate(9,15)  scale(1,4)" />
    <use href="#colour-4" transform="translate(11,15)  scale(3,1)" />
    <use href="#colour-4" transform="translate(10,17)  scale(1,3)" />
    <use href="#colour-4" transform="translate(11,18)" />
    <use href="#colour-4" transform="translate(12,19)" />
    <use href="#colour-4" transform="translate(6,20)" />
    <use href="#colour-5" transform="translate(7,3)" />
    <use href="#colour-5" transform="translate(5,6)" />
    <use href="#colour-5" transform="translate(4,8)" />
    <use href="#colour-5" transform="translate(3,9)" />
    <use href="#colour-6" transform="translate(9,3)" />
    <use href="#colour-6" transform="translate(7,5)" />
    <use href="#colour-6" transform="translate(10,6)" />
    <use href="#colour-6" transform="translate(9,7)" />
    <use href="#colour-6" transform="translate(8,9)" />
    <use href="#colour-6" transform="translate(11,9)" />
    <use href="#colour-6" transform="translate(6,10)  scale(2,1)" />
    <use href="#colour-6" transform="translate(12,10)" />
    <use href="#colour-6" transform="translate(2,11)" />
    <use href="#colour-6" transform="translate(4,11)" />
    <use href="#colour-6" transform="translate(3,12)" />
    <use href="#colour-6" transform="translate(9,12)  scale(1,3)" />
    <use href="#colour-6" transform="translate(8,13)  scale(2,1)" />
    <use href="#colour-6" transform="translate(8,14)  scale(2,1)" />
    <use href="#colour-6" transform="translate(14,15)" />
    <use href="#colour-6" transform="translate(10,16)" />
    <use href="#colour-6" transform="translate(12,16)" />
    <use href="#colour-6" transform="translate(3,17)" />
    <use href="#colour-6" transform="translate(2,18)" />
    <use href="#colour-6" transform="translate(5,20)" />
    <use href="#colour-6" transform="translate(8,20)" />
    <use href="#colour-7" transform="translate(10,3)  scale(1,2)" />
    <use href="#colour-7" transform="translate(3,5)  scale(1,2)" />
    <use href="#colour-7" transform="translate(11,5)  scale(1,4)" />
    <use href="#colour-7" transform="translate(4,7)" />
    <use href="#colour-7" transform="translate(6,7)" />
    <use href="#colour-7" transform="translate(8,8)" />
    <use href="#colour-7" transform="translate(6,9)  scale(2,1)" />
    <use href="#colour-7" transform="translate(2,10)  scale(4,1)" />
    <use href="#colour-7" transform="translate(1,11)  scale(1,2)" />
    <use href="#colour-7" transform="translate(4,12)  scale(4,1)" />
    <use href="#colour-7" transform="translate(0,13)  scale(1,2)" />
    <use href="#colour-7" transform="translate(4,13)  scale(1,6)" />
    <use href="#colour-7" transform="translate(7,13)" />
    <use href="#colour-7" transform="translate(3,14)  scale(2,1)" />
    <use href="#colour-7" transform="translate(1,15)  scale(1,2)" />
    <use href="#colour-7" transform="translate(3,15)  scale(2,1)" />
    <use href="#colour-7" transform="translate(15,15)  scale(2,1)" />
    <use href="#colour-7" transform="translate(2,16)" />
    <use href="#colour-7" transform="translate(13,16)  scale(2,1)" />
    <use href="#colour-7" transform="translate(3,19)" />
    <use href="#colour-8" transform="translate(3,7)  scale(1,2)" />
    <use href="#colour-8" transform="translate(2,9)" />
    <use href="#colour-9" transform="translate(9,10)" />
    <use href="#colour-9" transform="translate(6,11)" />
    <use href="#colour-9" transform="translate(8,11)" />
    <use href="#colour-9" transform="translate(10,11)  scale(1,2)" />
    <use href="#colour-9" transform="translate(12,12)" />
    <use href="#colour-9" transform="translate(11,13)" />
    <use href="#colour-10" transform="translate(5,14)" />
    <use href="#colour-10" transform="translate(6,15)" />
    <use href="#colour-10" transform="translate(7,17)" />
    <use href="#colour-11" transform="translate(6,14)" />
    <use href="#colour-12" transform="translate(5,15)" />
    <use href="#colour-12" transform="translate(5,17)" />
    <use href="#colour-13" transform="translate(2,17)" />
    <use href="#colour-13" transform="translate(1,18)  scale(1,2)" />
    <use href="#colour-13" transform="translate(2,20)" />
    <use href="#colour-14" transform="translate(12,17)" />
    <use href="#colour-14" transform="translate(13,18)  scale(1,2)" />
    <use href="#colour-14" transform="translate(3,20)" />
    <use href="#colour-14" transform="translate(10,20)  scale(3,1)" />
    <use href="#colour-14" transform="translate(4,21)  scale(6,1)" />
</svg>