<svg 
    xmlns="http://www.w3.org/2000/svg"
    height="25" width="32"
    viewBox="0 0 32 25" 
    preserveAspectRatio="xMinYMin meet" 
    shape-rendering="crispEdges"
>
    <defs>
        <rect
            id="rect"
            x="0" y="0" width="1" height="1"
        />
        <use href="#rect" id="colour-0" fill="rgb(34,55,43)" />
        <use href="#rect" id="colour-1" fill="rgb(55,83,64)" />
        <use href="#rect" id="colour-2" fill="rgb(99,103,45)" />
        <use href="#rect" id="colour-3" fill="rgb(48,66,51)" />
        <use href="#rect" id="colour-4" fill="rgb(195,191,82)" />
        <use href="#rect" id="colour-5" fill="rgb(171,172,72)" />
        <use href="#rect" id="colour-6" fill="rgb(144,146,62)" />
        <use href="#rect" id="colour-7" fill="rgb(72,103,79)" />
        <use href="#rect" id="colour-8" fill="rgb(63,67,30)" />
        <use href="#rect" id="colour-9" fill="rgb(100,138,103)" />
        <use href="#rect" id="colour-10" fill="rgb(83,117,88)" />
        <use href="#rect" id="colour-11" fill="rgb(126,128,55)" />
        <use href="#rect" id="colour-12" fill="rgb(82,83,36)" />
        <use href="#rect" id="colour-13" fill="rgb(117,151,118)" />
        <use href="#rect" id="colour-14" fill="rgb(255,126,130)" />
        <use href="#rect" id="colour-15" fill="rgb(16,34,34)" />
        <use href="#rect" id="colour-16" fill="rgb(214,206,214)" />
        <use href="#rect" id="colour-17" fill="rgb(22,28,34)" />
        <use href="#rect" id="colour-18" fill="rgb(38,37,24)" />
        <use href="#rect" id="colour-19" fill="rgb(36,42,24)" />
    </defs>
    <use href="#colour-0" transform="translate(28,0)  scale(3,1)" />
    <use href="#colour-0" transform="translate(27,1)" />
    <use href="#colour-0" transform="translate(30,1)" />
    <use href="#colour-0" transform="translate(29,2)  scale(1,2)" />
    <use href="#colour-0" transform="translate(27,3)" />
    <use href="#colour-0" transform="translate(17,5)  scale(2,1)" />
    <use href="#colour-0" transform="translate(19,6)  scale(2,1)" />
    <use href="#colour-0" transform="translate(21,7)" />
    <use href="#colour-0" transform="translate(22,8)" />
    <use href="#colour-0" transform="translate(31,8)  scale(2,1)" />
    <use href="#colour-0" transform="translate(23,9)" />
    <use href="#colour-0" transform="translate(31,9)  scale(2,1)" />
    <use href="#colour-0" transform="translate(6,10)" />
    <use href="#colour-0" transform="translate(8,10)  scale(1,3)" />
    <use href="#colour-0" transform="translate(19,10)  scale(1,2)" />
    <use href="#colour-0" transform="translate(24,10)" />
    <use href="#colour-0" transform="translate(31,10)  scale(2,1)" />
    <use href="#colour-0" transform="translate(5,11)" />
    <use href="#colour-0" transform="translate(7,11)  scale(2,1)" />
    <use href="#colour-0" transform="translate(12,11)" />
    <use href="#colour-0" transform="translate(16,11)  scale(4,1)" />
    <use href="#colour-0" transform="translate(22,11)  scale(1,2)" />
    <use href="#colour-0" transform="translate(25,11)" />
    <use href="#colour-0" transform="translate(31,11)  scale(2,1)" />
    <use href="#colour-0" transform="translate(7,12)  scale(2,1)" />
    <use href="#colour-0" transform="translate(13,12)" />
    <use href="#colour-0" transform="translate(21,12)  scale(2,1)" />
    <use href="#colour-0" transform="translate(26,12)" />
    <use href="#colour-0" transform="translate(31,12)  scale(2,1)" />
    <use href="#colour-0" transform="translate(7,13)" />
    <use href="#colour-0" transform="translate(10,13)" />
    <use href="#colour-0" transform="translate(12,13)" />
    <use href="#colour-0" transform="translate(24,13)" />
    <use href="#colour-0" transform="translate(31,13)  scale(2,1)" />
    <use href="#colour-0" transform="translate(6,14)  scale(1,2)" />
    <use href="#colour-0" transform="translate(11,14)" />
    <use href="#colour-0" transform="translate(25,14)" />
    <use href="#colour-0" transform="translate(30,14)  scale(1,2)" />
    <use href="#colour-0" transform="translate(0,15)  scale(1,4)" />
    <use href="#colour-0" transform="translate(4,16)  scale(2,1)" />
    <use href="#colour-0" transform="translate(26,16)" />
    <use href="#colour-0" transform="translate(25,17)" />
    <use href="#colour-0" transform="translate(27,17)" />
    <use href="#colour-0" transform="translate(1,19)" />
    <use href="#colour-1" transform="translate(28,1)  scale(2,1)" />
    <use href="#colour-1" transform="translate(28,2)" />
    <use href="#colour-1" transform="translate(27,4)" />
    <use href="#colour-1" transform="translate(14,6)" />
    <use href="#colour-1" transform="translate(18,6)" />
    <use href="#colour-1" transform="translate(29,6)" />
    <use href="#colour-1" transform="translate(20,7)" />
    <use href="#colour-1" transform="translate(27,7)" />
    <use href="#colour-1" transform="translate(11,8)" />
    <use href="#colour-1" transform="translate(13,8)" />
    <use href="#colour-1" transform="translate(15,8)" />
    <use href="#colour-1" transform="translate(17,8)  scale(1,3)" />
    <use href="#colour-1" transform="translate(30,8)" />
    <use href="#colour-1" transform="translate(10,9)" />
    <use href="#colour-1" transform="translate(14,9)  scale(1,2)" />
    <use href="#colour-1" transform="translate(16,9)  scale(3,1)" />
    <use href="#colour-1" transform="translate(20,9)  scale(1,3)" />
    <use href="#colour-1" transform="translate(29,9)  scale(1,2)" />
    <use href="#colour-1" transform="translate(12,10)  scale(4,1)" />
    <use href="#colour-1" transform="translate(18,10)" />
    <use href="#colour-1" transform="translate(21,10)  scale(1,2)" />
    <use href="#colour-1" transform="translate(30,10)  scale(1,2)" />
    <use href="#colour-1" transform="translate(11,11)  scale(1,3)" />
    <use href="#colour-1" transform="translate(13,11)" />
    <use href="#colour-1" transform="translate(23,11)" />
    <use href="#colour-1" transform="translate(10,12)  scale(3,1)" />
    <use href="#colour-1" transform="translate(24,12)" />
    <use href="#colour-1" transform="translate(28,12)  scale(2,1)" />
    <use href="#colour-1" transform="translate(3,13)" />
    <use href="#colour-1" transform="translate(6,13)" />
    <use href="#colour-1" transform="translate(27,13)  scale(3,1)" />
    <use href="#colour-1" transform="translate(2,14)" />
    <use href="#colour-1" transform="translate(5,14)" />
    <use href="#colour-1" transform="translate(7,14)" />
    <use href="#colour-1" transform="translate(10,14)" />
    <use href="#colour-1" transform="translate(26,14)" />
    <use href="#colour-1" transform="translate(28,14)  scale(2,1)" />
    <use href="#colour-1" transform="translate(4,15)" />
    <use href="#colour-1" transform="translate(9,15)" />
    <use href="#colour-1" transform="translate(27,15)  scale(2,1)" />
    <use href="#colour-1" transform="translate(1,16)" />
    <use href="#colour-1" transform="translate(3,16)" />
    <use href="#colour-1" transform="translate(7,16)" />
    <use href="#colour-1" transform="translate(2,17)" />
    <use href="#colour-1" transform="translate(4,17)" />
    <use href="#colour-2" transform="translate(13,2)  scale(2,1)" />
    <use href="#colour-2" transform="translate(12,3)  scale(1,2)" />
    <use href="#colour-2" transform="translate(15,3)" />
    <use href="#colour-2" transform="translate(18,3)  scale(3,1)" />
    <use href="#colour-2" transform="translate(16,4)  scale(2,1)" />
    <use href="#colour-2" transform="translate(20,4)" />
    <use href="#colour-2" transform="translate(11,5)  scale(1,2)" />
    <use href="#colour-2" transform="translate(21,5)  scale(1,2)" />
    <use href="#colour-2" transform="translate(8,6)  scale(4,1)" />
    <use href="#colour-2" transform="translate(7,7)  scale(1,4)" />
    <use href="#colour-2" transform="translate(22,7)  scale(3,1)" />
    <use href="#colour-2" transform="translate(24,8)  scale(1,2)" />
    <use href="#colour-2" transform="translate(17,12)" />
    <use href="#colour-2" transform="translate(16,13)" />
    <use href="#colour-2" transform="translate(21,13)" />
    <use href="#colour-2" transform="translate(12,14)  scale(1,3)" />
    <use href="#colour-2" transform="translate(20,14)" />
    <use href="#colour-2" transform="translate(17,15)" />
    <use href="#colour-2" transform="translate(16,16)" />
    <use href="#colour-2" transform="translate(13,17)" />
    <use href="#colour-2" transform="translate(24,18)" />
    <use href="#colour-2" transform="translate(8,19)" />
    <use href="#colour-2" transform="translate(21,19)" />
    <use href="#colour-2" transform="translate(25,19)" />
    <use href="#colour-2" transform="translate(7,20)" />
    <use href="#colour-2" transform="translate(22,20)  scale(3,1)" />
    <use href="#colour-2" transform="translate(27,20)" />
    <use href="#colour-2" transform="translate(8,21)" />
    <use href="#colour-2" transform="translate(17,21)  scale(2,1)" />
    <use href="#colour-2" transform="translate(26,21)" />
    <use href="#colour-2" transform="translate(6,22)" />
    <use href="#colour-2" transform="translate(18,22)" />
    <use href="#colour-2" transform="translate(15,23)" />
    <use href="#colour-2" transform="translate(17,23)" />
    <use href="#colour-3" transform="translate(27,2)" />
    <use href="#colour-3" transform="translate(26,3)  scale(1,5)" />
    <use href="#colour-3" transform="translate(28,3)" />
    <use href="#colour-3" transform="translate(29,4)  scale(1,2)" />
    <use href="#colour-3" transform="translate(14,5)  scale(3,1)" />
    <use href="#colour-3" transform="translate(28,5)  scale(2,1)" />
    <use href="#colour-3" transform="translate(12,6)  scale(2,1)" />
    <use href="#colour-3" transform="translate(16,6)" />
    <use href="#colour-3" transform="translate(27,6)" />
    <use href="#colour-3" transform="translate(30,6)  scale(1,2)" />
    <use href="#colour-3" transform="translate(11,7)  scale(3,1)" />
    <use href="#colour-3" transform="translate(17,7)" />
    <use href="#colour-3" transform="translate(10,8)" />
    <use href="#colour-3" transform="translate(14,8)" />
    <use href="#colour-3" transform="translate(18,8)" />
    <use href="#colour-3" transform="translate(21,8)  scale(1,2)" />
    <use href="#colour-3" transform="translate(27,8)  scale(3,1)" />
    <use href="#colour-3" transform="translate(9,9)  scale(1,2)" />
    <use href="#colour-3" transform="translate(15,9)" />
    <use href="#colour-3" transform="translate(19,9)" />
    <use href="#colour-3" transform="translate(27,9)  scale(1,2)" />
    <use href="#colour-3" transform="translate(30,9)" />
    <use href="#colour-3" transform="translate(10,10)  scale(2,1)" />
    <use href="#colour-3" transform="translate(16,10)" />
    <use href="#colour-3" transform="translate(22,10)" />
    <use href="#colour-3" transform="translate(14,11)  scale(2,1)" />
    <use href="#colour-3" transform="translate(26,11)" />
    <use href="#colour-3" transform="translate(28,11)  scale(2,1)" />
    <use href="#colour-3" transform="translate(20,12)" />
    <use href="#colour-3" transform="translate(23,12)" />
    <use href="#colour-3" transform="translate(25,12)  scale(1,2)" />
    <use href="#colour-3" transform="translate(27,12)" />
    <use href="#colour-3" transform="translate(30,12)  scale(1,2)" />
    <use href="#colour-3" transform="translate(8,13)  scale(2,1)" />
    <use href="#colour-3" transform="translate(27,14)" />
    <use href="#colour-3" transform="translate(10,15)" />
    <use href="#colour-3" transform="translate(25,15)  scale(2,1)" />
    <use href="#colour-3" transform="translate(29,15)" />
    <use href="#colour-3" transform="translate(8,16)  scale(2,1)" />
    <use href="#colour-3" transform="translate(25,16)" />
    <use href="#colour-3" transform="translate(27,16)  scale(2,1)" />
    <use href="#colour-3" transform="translate(28,17)" />
    <use href="#colour-4" transform="translate(13,3)  scale(1,2)" />
    <use href="#colour-4" transform="translate(18,4)" />
    <use href="#colour-4" transform="translate(8,7)  scale(1,2)" />
    <use href="#colour-4" transform="translate(19,13)" />
    <use href="#colour-4" transform="translate(14,14)" />
    <use href="#colour-4" transform="translate(22,15)  scale(2,1)" />
    <use href="#colour-4" transform="translate(10,17)" />
    <use href="#colour-4" transform="translate(15,17)" />
    <use href="#colour-4" transform="translate(7,18)" />
    <use href="#colour-4" transform="translate(9,18)" />
    <use href="#colour-4" transform="translate(18,18)" />
    <use href="#colour-5" transform="translate(14,3)  scale(1,2)" />
    <use href="#colour-5" transform="translate(19,4)" />
    <use href="#colour-5" transform="translate(12,5)" />
    <use href="#colour-5" transform="translate(20,5)" />
    <use href="#colour-5" transform="translate(9,7)" />
    <use href="#colour-5" transform="translate(23,8)" />
    <use href="#colour-5" transform="translate(8,9)" />
    <use href="#colour-5" transform="translate(3,11)" />
    <use href="#colour-5" transform="translate(14,13)" />
    <use href="#colour-5" transform="translate(18,13)" />
    <use href="#colour-5" transform="translate(13,14)" />
    <use href="#colour-5" transform="translate(15,14)" />
    <use href="#colour-5" transform="translate(22,14)  scale(2,1)" />
    <use href="#colour-5" transform="translate(14,15)" />
    <use href="#colour-5" transform="translate(11,16)  scale(1,2)" />
    <use href="#colour-5" transform="translate(21,16)  scale(3,1)" />
    <use href="#colour-5" transform="translate(7,17)" />
    <use href="#colour-5" transform="translate(14,17)" />
    <use href="#colour-5" transform="translate(16,17)" />
    <use href="#colour-5" transform="translate(10,18)" />
    <use href="#colour-5" transform="translate(15,18)" />
    <use href="#colour-5" transform="translate(26,18)" />
    <use href="#colour-5" transform="translate(6,19)" />
    <use href="#colour-5" transform="translate(2,20)" />
    <use href="#colour-5" transform="translate(5,20)" />
    <use href="#colour-6" transform="translate(15,4)" />
    <use href="#colour-6" transform="translate(13,5)" />
    <use href="#colour-6" transform="translate(19,5)" />
    <use href="#colour-6" transform="translate(10,7)" />
    <use href="#colour-6" transform="translate(9,8)" />
    <use href="#colour-6" transform="translate(3,12)" />
    <use href="#colour-6" transform="translate(14,12)" />
    <use href="#colour-6" transform="translate(18,12)  scale(2,1)" />
    <use href="#colour-6" transform="translate(15,13)" />
    <use href="#colour-6" transform="translate(20,13)" />
    <use href="#colour-6" transform="translate(22,13)  scale(2,1)" />
    <use href="#colour-6" transform="translate(18,14)  scale(2,1)" />
    <use href="#colour-6" transform="translate(21,14)  scale(1,2)" />
    <use href="#colour-6" transform="translate(24,14)  scale(1,3)" />
    <use href="#colour-6" transform="translate(11,15)" />
    <use href="#colour-6" transform="translate(15,15)" />
    <use href="#colour-6" transform="translate(10,16)" />
    <use href="#colour-6" transform="translate(17,16)" />
    <use href="#colour-6" transform="translate(9,17)" />
    <use href="#colour-6" transform="translate(21,17)  scale(3,1)" />
    <use href="#colour-6" transform="translate(26,17)" />
    <use href="#colour-6" transform="translate(8,18)" />
    <use href="#colour-6" transform="translate(16,18)" />
    <use href="#colour-6" transform="translate(25,18)" />
    <use href="#colour-6" transform="translate(7,19)" />
    <use href="#colour-6" transform="translate(9,19)" />
    <use href="#colour-6" transform="translate(18,19)  scale(1,2)" />
    <use href="#colour-6" transform="translate(26,19)" />
    <use href="#colour-6" transform="translate(3,20)  scale(2,1)" />
    <use href="#colour-6" transform="translate(6,20)" />
    <use href="#colour-6" transform="translate(17,20)  scale(2,1)" />
    <use href="#colour-7" transform="translate(28,4)" />
    <use href="#colour-7" transform="translate(27,5)" />
    <use href="#colour-7" transform="translate(15,6)  scale(1,2)" />
    <use href="#colour-7" transform="translate(17,6)" />
    <use href="#colour-7" transform="translate(28,6)  scale(1,2)" />
    <use href="#colour-7" transform="translate(14,7)  scale(3,1)" />
    <use href="#colour-7" transform="translate(18,7)  scale(2,1)" />
    <use href="#colour-7" transform="translate(29,7)" />
    <use href="#colour-7" transform="translate(12,8)  scale(1,2)" />
    <use href="#colour-7" transform="translate(16,8)" />
    <use href="#colour-7" transform="translate(19,8)  scale(2,1)" />
    <use href="#colour-7" transform="translate(11,9)  scale(3,1)" />
    <use href="#colour-7" transform="translate(22,9)" />
    <use href="#colour-7" transform="translate(28,9)  scale(1,2)" />
    <use href="#colour-7" transform="translate(23,10)" />
    <use href="#colour-7" transform="translate(9,11)  scale(2,1)" />
    <use href="#colour-7" transform="translate(24,11)" />
    <use href="#colour-7" transform="translate(27,11)" />
    <use href="#colour-7" transform="translate(9,12)" />
    <use href="#colour-7" transform="translate(26,13)" />
    <use href="#colour-7" transform="translate(8,14)  scale(2,1)" />
    <use href="#colour-7" transform="translate(7,15)  scale(2,1)" />
    <use href="#colour-7" transform="translate(6,16)" />
    <use href="#colour-7" transform="translate(1,17)" />
    <use href="#colour-7" transform="translate(3,17)" />
    <use href="#colour-8" transform="translate(3,10)" />
    <use href="#colour-8" transform="translate(2,11)  scale(1,2)" />
    <use href="#colour-8" transform="translate(4,11)  scale(1,2)" />
    <use href="#colour-8" transform="translate(1,13)  scale(1,2)" />
    <use href="#colour-8" transform="translate(19,15)  scale(2,1)" />
    <use href="#colour-8" transform="translate(18,16)" />
    <use href="#colour-8" transform="translate(20,16)  scale(1,4)" />
    <use href="#colour-8" transform="translate(19,17)  scale(2,1)" />
    <use href="#colour-8" transform="translate(12,18)  scale(3,1)" />
    <use href="#colour-8" transform="translate(19,18)  scale(2,1)" />
    <use href="#colour-8" transform="translate(11,19)" />
    <use href="#colour-8" transform="translate(15,19)  scale(2,1)" />
    <use href="#colour-8" transform="translate(19,19)  scale(2,1)" />
    <use href="#colour-8" transform="translate(1,20)" />
    <use href="#colour-8" transform="translate(8,20)  scale(3,1)" />
    <use href="#colour-8" transform="translate(16,20)" />
    <use href="#colour-8" transform="translate(19,20)  scale(1,2)" />
    <use href="#colour-8" transform="translate(21,20)" />
    <use href="#colour-8" transform="translate(25,20)" />
    <use href="#colour-8" transform="translate(2,21)  scale(2,1)" />
    <use href="#colour-8" transform="translate(22,21)  scale(3,1)" />
    <use href="#colour-9" transform="translate(6,11)  scale(1,2)" />
    <use href="#colour-9" transform="translate(3,15)" />
    <use href="#colour-10" transform="translate(5,12)" />
    <use href="#colour-10" transform="translate(4,13)" />
    <use href="#colour-10" transform="translate(3,14)" />
    <use href="#colour-10" transform="translate(1,15)" />
    <use href="#colour-10" transform="translate(2,16)" />
    <use href="#colour-11" transform="translate(15,12)" />
    <use href="#colour-11" transform="translate(2,13)" />
    <use href="#colour-11" transform="translate(13,13)" />
    <use href="#colour-11" transform="translate(16,14)  scale(1,2)" />
    <use href="#colour-11" transform="translate(13,15)  scale(1,2)" />
    <use href="#colour-11" transform="translate(14,16)  scale(2,1)" />
    <use href="#colour-11" transform="translate(8,17)" />
    <use href="#colour-11" transform="translate(12,17)" />
    <use href="#colour-11" transform="translate(17,17)  scale(2,1)" />
    <use href="#colour-11" transform="translate(24,17)" />
    <use href="#colour-11" transform="translate(11,18)" />
    <use href="#colour-11" transform="translate(17,18)  scale(1,2)" />
    <use href="#colour-11" transform="translate(21,18)  scale(3,1)" />
    <use href="#colour-11" transform="translate(27,18)  scale(1,2)" />
    <use href="#colour-11" transform="translate(10,19)" />
    <use href="#colour-11" transform="translate(22,19)  scale(3,1)" />
    <use href="#colour-11" transform="translate(26,20)" />
    <use href="#colour-11" transform="translate(5,22)" />
    <use href="#colour-11" transform="translate(7,22)" />
    <use href="#colour-11" transform="translate(17,22)" />
    <use href="#colour-11" transform="translate(25,22)" />
    <use href="#colour-11" transform="translate(27,22)" />
    <use href="#colour-11" transform="translate(14,23)" />
    <use href="#colour-11" transform="translate(16,23)" />
    <use href="#colour-12" transform="translate(16,12)" />
    <use href="#colour-12" transform="translate(17,13)  scale(1,2)" />
    <use href="#colour-12" transform="translate(18,15)" />
    <use href="#colour-12" transform="translate(25,21)" />
    <use href="#colour-12" transform="translate(27,21)" />
    <use href="#colour-12" transform="translate(8,22)" />
    <use href="#colour-12" transform="translate(26,22)" />
    <use href="#colour-12" transform="translate(18,23)" />
    <use href="#colour-13" transform="translate(5,13)" />
    <use href="#colour-13" transform="translate(4,14)" />
    <use href="#colour-13" transform="translate(2,15)" />
    <use href="#colour-14" transform="translate(5,15)" />
    <use href="#colour-15" transform="translate(29,16)  scale(1,2)" />
    <use href="#colour-16" transform="translate(5,17)" />
    <use href="#colour-16" transform="translate(1,18)" />
    <use href="#colour-16" transform="translate(3,18)" />
    <use href="#colour-16" transform="translate(2,19)" />
    <use href="#colour-16" transform="translate(4,19)" />
    <use href="#colour-17" transform="translate(6,17)" />
    <use href="#colour-18" transform="translate(2,18)" />
    <use href="#colour-18" transform="translate(4,18)  scale(3,1)" />
    <use href="#colour-18" transform="translate(3,19)" />
    <use href="#colour-18" transform="translate(5,19)" />
    <use href="#colour-18" transform="translate(4,23)  scale(5,1)" />
    <use href="#colour-19" transform="translate(28,18)  scale(1,5)" />
    <use href="#colour-19" transform="translate(4,21)  scale(4,1)" />
    <use href="#colour-19" transform="translate(9,21)  scale(1,2)" />
    <use href="#colour-19" transform="translate(16,21)  scale(1,2)" />
    <use href="#colour-19" transform="translate(4,22)" />
    <use href="#colour-19" transform="translate(14,22)  scale(3,1)" />
    <use href="#colour-19" transform="translate(19,22)  scale(1,2)" />
    <use href="#colour-19" transform="translate(24,22)  scale(1,2)" />
    <use href="#colour-19" transform="translate(13,23)  scale(1,3)" />
    <use href="#colour-19" transform="translate(25,23)  scale(3,1)" />
    <use href="#colour-19" transform="translate(14,24)  scale(5,1)" />
</svg>