<?xml version="1.0" encoding="UTF-8"?>
<svg version="1.1" xmlns="http://www.w3.org/2000/svg" width="3070" height="3070">
<path 
    fill="#FE0003" 
    transform="translate(1531,2066)" 
    d="M0 0 C17.82 0 35.64 0 54 0 C54 3.63 54 7.26 54 11 C53.01 11.33 52.02 11.66 51 12 C51.08715017 13.93833996 51.19532964 15.8757429 51.3125 17.8125 C51.39951172 19.43091797 51.39951172 19.43091797 51.48828125 21.08203125 C52.0431573 24.24609546 52.63264023 24.98806153 55 27 C55 27.66 55 28.32 55 29 C55.61488281 28.97679688 56.22976563 28.95359375 56.86328125 28.9296875 C57.67152344 28.91164063 58.47976563 28.89359375 59.3125 28.875 C60.51326172 28.84019531 60.51326172 28.84019531 61.73828125 28.8046875 C64 29 64 29 67 31 C69.12197159 31.30724522 69.12197159 31.30724522 71.49209595 31.27174377 C72.41191757 31.2814621 73.3317392 31.29118042 74.2794342 31.30119324 C75.78974464 31.30207695 75.78974464 31.30207695 77.33056641 31.30297852 C78.39253738 31.31141785 79.45450836 31.31985718 80.54866028 31.32855225 C84.06629875 31.35438773 87.58385331 31.36648236 91.1015625 31.37890625 C93.53869296 31.39507232 95.97581689 31.41225136 98.41293335 31.43040466 C104.83391311 31.47615086 111.25490142 31.510929 117.67596436 31.54260254 C127.96208097 31.59442978 138.24810202 31.65942721 148.53409958 31.73081779 C152.13768412 31.75373847 155.74125635 31.76995217 159.34487915 31.78553772 C161.53932838 31.79893804 163.73377631 31.81255229 165.92822266 31.82641602 C166.93914474 31.82902939 167.95006683 31.83164276 168.99162292 31.83433533 C170.36289589 31.84468307 170.36289589 31.84468307 171.76187134 31.85523987 C172.56085657 31.85909478 173.3598418 31.8629497 174.18303871 31.86692142 C176 32 176 32 177 33 C177.23701239 35.85877909 177.42219182 38.69883297 177.5625 41.5625 C177.60568359 42.36880859 177.64886719 43.17511719 177.69335938 44.00585938 C177.79975262 46.00368805 177.90040888 48.0018207 178 50 C178.66 50.33 179.32 50.66 180 51 C180.39870862 54.62462386 180.5093578 58.23207339 180.65625 61.875 C180.7696875 62.90625 180.883125 63.9375 181 65 C181.66 65.33 182.32 65.66 183 66 C183.4140625 69.16015625 183.4140625 69.16015625 183.625 73.0625 C183.73714844 74.99802734 183.73714844 74.99802734 183.8515625 76.97265625 C183.90054687 77.97167969 183.94953125 78.97070312 184 80 C185.134375 79.979375 186.26875 79.95875 187.4375 79.9375 C191 80 191 80 192 81 C192.12089172 82.59854042 192.17956652 84.20188927 192.2109375 85.8046875 C192.23929688 86.78050781 192.26765625 87.75632812 192.296875 88.76171875 C192.34875784 90.82925009 192.39308824 92.8969854 192.4296875 94.96484375 C192.460625 95.94324219 192.4915625 96.92164062 192.5234375 97.9296875 C192.54325684 98.82929199 192.56307617 99.72889648 192.58349609 100.65576172 C193.07836414 103.4410624 193.97585813 104.12458957 196 106 C196.29296875 109.13671875 196.29296875 109.13671875 196.1875 112.6875 C196.16042969 113.86699219 196.13335938 115.04648438 196.10546875 116.26171875 C196.05326172 117.61716797 196.05326172 117.61716797 196 119 C196.66 119 197.32 119 198 119 C198 122.96 198 126.92 198 131 C198.99 131 199.98 131 201 131 C198.33333333 148.33333333 195.66666667 165.66666667 193 183 C191.02 183.33 189.04 183.66 187 184 C186.95101563 184.69867187 186.90203125 185.39734375 186.8515625 186.1171875 C186.77679687 187.02726562 186.70203125 187.93734375 186.625 188.875 C186.55539062 189.77992188 186.48578125 190.68484375 186.4140625 191.6171875 C186 194 186 194 184 196 C183.938125 196.7425 183.87625 197.485 183.8125 198.25 C182.56105211 202.48566978 179.53894723 204.52273694 176 207 C173.375 208.25 173.375 208.25 171 209 C169.33063027 209.65986886 167.6635999 210.32571698 166 211 C165.98018066 212.0194873 165.96036133 213.03897461 165.93994141 214.08935547 C165.86397192 217.86532648 165.77524191 221.64090773 165.68261719 225.41650391 C165.64429148 227.0518424 165.60944493 228.68726624 165.578125 230.32275391 C165.53255158 232.6712091 165.47454633 235.01907495 165.4140625 237.3671875 C165.40251129 238.10057343 165.39096008 238.83395935 165.37905884 239.58956909 C165.22774341 244.77225659 165.22774341 244.77225659 163 247 C162.57277047 250.08917709 162.57277047 250.08917709 162.4375 253.5625 C162.09722222 259.90277778 162.09722222 259.90277778 161 261 C158.85441173 261.08775605 156.70595579 261.10695219 154.55859375 261.09765625 C153.25341797 261.09443359 151.94824219 261.09121094 150.60351562 261.08789062 C149.2148431 261.07953401 147.82617123 261.07106905 146.4375 261.0625 C145.04492344 261.05748666 143.65234519 261.05292347 142.25976562 261.04882812 C138.8398013 261.03699434 135.41992156 261.0205088 132 261 C131.67 258.03 131.34 255.06 131 252 C130.34 252 129.68 252 129 252 C128.67 248.04 128.34 244.08 128 240 C123.4158037 241.45288986 123.4158037 241.45288986 122 243 C118.67052907 243.28538322 115.34102372 243.44892633 112.00390625 243.62109375 C108.88912046 243.70217553 108.88912046 243.70217553 107 246 C103.375 246.125 103.375 246.125 100 246 C100 246.66 100 247.32 100 248 C96.34965773 249.82517113 91.99640885 249.41169113 87.96875 249.62109375 C84.88509744 249.70697327 84.88509744 249.70697327 83 252 C81.68 252.33 80.36 252.66 79 253 C78.67 259.93 78.34 266.86 78 274 C62.16 274 46.32 274 30 274 C29.67 268.06 29.34 262.12 29 256 C26.73640625 255.98582031 24.4728125 255.97164062 22.140625 255.95703125 C19.94288316 255.92639705 17.74544239 255.8873125 15.54785156 255.84741211 C14.02322067 255.82424783 12.49843012 255.80984 10.97363281 255.80444336 C8.77828678 255.79514105 6.58544588 255.75413304 4.390625 255.70703125 C3.07094727 255.6913208 1.75126953 255.67561035 0.39160156 255.65942383 C-3 255 -3 255 -5.33691406 252.51831055 C-5.88573242 251.68726807 -6.43455078 250.85622559 -7 250 C-7.66 249.67 -8.32 249.34 -9 249 C-9.67939174 247.00428677 -10.34561559 245.00405227 -11 243 C-12.94332332 240.62005632 -12.94332332 240.62005632 -16.5 240.75 C-20.05667668 240.62005632 -20.05667668 240.62005632 -22 243 C-24.6015625 243.1953125 -24.6015625 243.1953125 -27.625 243.125 C-28.62789062 243.10695313 -29.63078125 243.08890625 -30.6640625 243.0703125 C-31.43492188 243.04710938 -32.20578125 243.02390625 -33 243 C-33.33 242.01 -33.66 241.02 -34 240 C-34.886875 239.71125 -35.77375 239.4225 -36.6875 239.125 C-40.80070288 237.72806317 -42.86704117 235.98377031 -46 233 C-46 232.34 -46 231.68 -46 231 C-47.2065625 230.7834375 -47.2065625 230.7834375 -48.4375 230.5625 C-51 230 -51 230 -52 229 C-53.155 228.835 -54.31 228.67 -55.5 228.5 C-59 228 -59 228 -60 227 C-60.144375 225.845 -60.28875 224.69 -60.4375 223.5 C-60.623125 222.345 -60.80875 221.19 -61 220 C-61.66 219.67 -62.32 219.34 -63 219 C-63.69437747 217.00945124 -64.35610218 215.00744615 -65 213 C-65.98126556 210.99074195 -66.9849911 208.99242489 -68 207 C-69.68918213 203.343477 -71.34657993 199.67281454 -73 196 C-74.2684375 197.2065625 -74.2684375 197.2065625 -75.5625 198.4375 C-78.86473519 201.23653745 -81.70096546 201.57852603 -86 202 C-86.33 202.66 -86.66 203.32 -87 204 C-90.3 204 -93.6 204 -97 204 C-97.44653931 201.98664551 -97.44653931 201.98664551 -97.90209961 199.93261719 C-99.00670503 194.95284281 -100.11201125 189.97322419 -101.2175293 184.99365234 C-101.69591076 182.83842137 -102.17410215 180.6831482 -102.65209961 178.52783203 C-103.33918087 175.42990178 -104.02694547 172.33212392 -104.71484375 169.234375 C-104.92842026 168.27070007 -105.14199677 167.30702515 -105.36204529 166.31414795 C-105.56217728 165.41351624 -105.76230927 164.51288452 -105.96850586 163.58496094 C-106.14393417 162.79442322 -106.31936249 162.0038855 -106.50010681 161.18939209 C-106.97290782 159.11865616 -107.47675749 157.0585064 -108 155 C-107.01 155 -106.02 155 -105 155 C-103.15297724 151.84411084 -102.74770855 149.53478173 -102.74121094 145.89599609 C-102.73175446 144.37454483 -102.73175446 144.37454483 -102.72210693 142.82235718 C-102.7261554 141.73371368 -102.73020386 140.64507019 -102.734375 139.5234375 C-102.73246155 138.40184235 -102.7305481 137.28024719 -102.72857666 136.12466431 C-102.72721644 133.75595882 -102.73090151 131.38724583 -102.73925781 129.01855469 C-102.74997938 125.38199247 -102.73934647 121.74592204 -102.7265625 118.109375 C-102.72788373 115.80989474 -102.73044537 113.51041478 -102.734375 111.2109375 C-102.73032654 110.11824554 -102.72627808 109.02555359 -102.72210693 107.89974976 C-102.72841125 106.89175323 -102.73471558 105.88375671 -102.74121094 104.84521484 C-102.74280212 103.95571136 -102.74439331 103.06620789 -102.74603271 102.14974976 C-102.80019395 99.78696331 -102.80019395 99.78696331 -105 98 C-106.46496094 91.37582881 -107.10621779 82.21243558 -104 76 C-104.96314063 73.98199105 -105.96958573 71.98450156 -107 70 C-107.28875 68.96875 -107.5775 67.9375 -107.875 66.875 C-108.78467504 63.81171989 -108.78467504 63.81171989 -111.5625 62.0625 C-114 60 -114 60 -114.8125 56.8125 C-115.63164026 40.15664812 -115.63164026 40.15664812 -112.62408447 34.33808899 C-108.54528876 30.70383581 -104.55484815 31.29639833 -99.26464844 31.34057617 C-97.62517242 31.32485062 -97.62517242 31.32485062 -95.95257568 31.30880737 C-92.33788893 31.27999341 -88.72415632 31.28635679 -85.109375 31.29296875 C-82.604012 31.27985766 -80.09865958 31.26455527 -77.59332275 31.24714661 C-71.67186418 31.21129736 -65.75061547 31.19755821 -59.82907319 31.1945222 C-52.42499073 31.18937195 -45.02115819 31.14990853 -37.6171875 31.11132812 C-24.41142769 31.04666919 -11.20590841 31.01609245 2 31 C2 21.76 2 12.52 2 3 C1.34 3 0.68 3 0 3 C0 2.01 0 1.02 0 0 Z " 
/>
</svg>