<svg 
    xmlns="http://www.w3.org/2000/svg"
    height="21" width="16"
    viewBox="0 0 16 21" 
    preserveAspectRatio="xMinYMin meet" 
    shape-rendering="crispEdges"
>
    <defs>
        <rect
            id="rect"
            x="0" y="0" width="1" height="1"
        />
        <use href="#rect" id="colour-0" fill="rgb(33,33,57)" />
        <use href="#rect" id="colour-1" fill="rgb(57,57,82)" />
        <use href="#rect" id="colour-2" fill="rgb(82,82,107)" />
        <use href="#rect" id="colour-3" fill="rgb(8,66,123)" />
        <use href="#rect" id="colour-4" fill="rgb(214,165,115)" />
        <use href="#rect" id="colour-5" fill="rgb(239,198,156)" />
        <use href="#rect" id="colour-6" fill="rgb(57,8,0)" />
        <use href="#rect" id="colour-7" fill="rgb(8,107,173)" />
        <use href="#rect" id="colour-8" fill="rgb(8,132,198)" />
        <use href="#rect" id="colour-9" fill="rgb(33,140,41)" />
        <use href="#rect" id="colour-10" fill="rgb(99,66,66)" />
        <use href="#rect" id="colour-11" fill="rgb(8,173,247)" />
        <use href="#rect" id="colour-12" fill="rgb(181,132,107)" />
        <use href="#rect" id="colour-13" fill="rgb(16,16,33)" />
        <use href="#rect" id="colour-14" fill="rgb(57,198,255)" />
        <use href="#rect" id="colour-15" fill="rgb(8,156,222)" />
        <use href="#rect" id="colour-16" fill="rgb(140,123,57)" />
        <use href="#rect" id="colour-17" fill="rgb(189,165,74)" />
        <use href="#rect" id="colour-18" fill="rgb(49,49,74)" />
        <use href="#rect" id="colour-19" fill="rgb(231,198,99)" />
    </defs>
    <use href="#colour-0" transform="translate(2,0)  scale(3,1)" />
    <use href="#colour-0" transform="translate(6,0)  scale(1,2)" />
    <use href="#colour-0" transform="translate(1,1)  scale(4,1)" />
    <use href="#colour-0" transform="translate(7,1)  scale(1,2)" />
    <use href="#colour-0" transform="translate(1,2)  scale(1,2)" />
    <use href="#colour-0" transform="translate(5,2)  scale(1,2)" />
    <use href="#colour-0" transform="translate(8,2)  scale(1,2)" />
    <use href="#colour-0" transform="translate(0,3)  scale(3,1)" />
    <use href="#colour-0" transform="translate(4,3)  scale(2,1)" />
    <use href="#colour-0" transform="translate(9,3)  scale(1,2)" />
    <use href="#colour-0" transform="translate(0,4)  scale(1,2)" />
    <use href="#colour-0" transform="translate(3,4)" />
    <use href="#colour-0" transform="translate(6,4)  scale(2,1)" />
    <use href="#colour-0" transform="translate(7,5)  scale(2,1)" />
    <use href="#colour-0" transform="translate(1,6)  scale(1,4)" />
    <use href="#colour-0" transform="translate(8,6)" />
    <use href="#colour-0" transform="translate(3,10)" />
    <use href="#colour-0" transform="translate(8,10)  scale(1,2)" />
    <use href="#colour-0" transform="translate(9,11)" />
    <use href="#colour-0" transform="translate(11,17)" />
    <use href="#colour-1" transform="translate(5,0)  scale(1,2)" />
    <use href="#colour-1" transform="translate(2,2)" />
    <use href="#colour-1" transform="translate(4,2)" />
    <use href="#colour-1" transform="translate(6,2)" />
    <use href="#colour-1" transform="translate(3,3)" />
    <use href="#colour-1" transform="translate(7,3)" />
    <use href="#colour-1" transform="translate(1,4)  scale(1,2)" />
    <use href="#colour-1" transform="translate(4,4)" />
    <use href="#colour-1" transform="translate(8,4)" />
    <use href="#colour-1" transform="translate(6,5)" />
    <use href="#colour-2" transform="translate(3,2)" />
    <use href="#colour-2" transform="translate(6,3)" />
    <use href="#colour-2" transform="translate(2,4)" />
    <use href="#colour-2" transform="translate(5,4)" />
    <use href="#colour-2" transform="translate(7,6)" />
    <use href="#colour-2" transform="translate(6,10)" />
    <use href="#colour-2" transform="translate(12,15)" />
    <use href="#colour-2" transform="translate(11,16)" />
    <use href="#colour-2" transform="translate(3,17)" />
    <use href="#colour-2" transform="translate(6,17)" />
    <use href="#colour-2" transform="translate(8,17)  scale(3,1)" />
    <use href="#colour-2" transform="translate(4,18)" />
    <use href="#colour-2" transform="translate(13,18)" />
    <use href="#colour-2" transform="translate(12,19)" />
    <use href="#colour-3" transform="translate(10,4)  scale(3,1)" />
    <use href="#colour-3" transform="translate(9,5)  scale(5,1)" />
    <use href="#colour-3" transform="translate(9,6)" />
    <use href="#colour-3" transform="translate(13,6)  scale(2,1)" />
    <use href="#colour-3" transform="translate(14,7)" />
    <use href="#colour-3" transform="translate(13,10)" />
    <use href="#colour-3" transform="translate(10,11)" />
    <use href="#colour-3" transform="translate(12,11)" />
    <use href="#colour-4" transform="translate(2,5)" />
    <use href="#colour-4" transform="translate(5,5)" />
    <use href="#colour-4" transform="translate(6,6)  scale(1,2)" />
    <use href="#colour-4" transform="translate(2,8)" />
    <use href="#colour-4" transform="translate(5,8)" />
    <use href="#colour-4" transform="translate(14,12)  scale(1,2)" />
    <use href="#colour-4" transform="translate(2,13)" />
    <use href="#colour-4" transform="translate(13,13)  scale(2,1)" />
    <use href="#colour-5" transform="translate(3,5)  scale(2,1)" />
    <use href="#colour-5" transform="translate(3,6)  scale(2,1)" />
    <use href="#colour-5" transform="translate(3,7)  scale(2,1)" />
    <use href="#colour-5" transform="translate(7,7)" />
    <use href="#colour-5" transform="translate(3,8)  scale(2,1)" />
    <use href="#colour-5" transform="translate(13,12)" />
    <use href="#colour-6" transform="translate(2,6)" />
    <use href="#colour-6" transform="translate(5,6)" />
    <use href="#colour-7" transform="translate(10,6)" />
    <use href="#colour-7" transform="translate(12,6)" />
    <use href="#colour-7" transform="translate(11,7)" />
    <use href="#colour-7" transform="translate(8,9)" />
    <use href="#colour-7" transform="translate(9,10)" />
    <use href="#colour-7" transform="translate(12,10)" />
    <use href="#colour-7" transform="translate(11,11)" />
    <use href="#colour-8" transform="translate(11,6)" />
    <use href="#colour-8" transform="translate(9,7)  scale(2,1)" />
    <use href="#colour-8" transform="translate(13,7)" />
    <use href="#colour-8" transform="translate(12,8)" />
    <use href="#colour-8" transform="translate(9,9)" />
    <use href="#colour-8" transform="translate(13,9)" />
    <use href="#colour-8" transform="translate(10,10)" />
    <use href="#colour-9" transform="translate(2,7)" />
    <use href="#colour-9" transform="translate(5,7)" />
    <use href="#colour-10" transform="translate(8,7)" />
    <use href="#colour-10" transform="translate(7,8)" />
    <use href="#colour-10" transform="translate(2,9)  scale(4,1)" />
    <use href="#colour-10" transform="translate(14,11)" />
    <use href="#colour-10" transform="translate(1,12)  scale(2,1)" />
    <use href="#colour-10" transform="translate(1,13)  scale(1,2)" />
    <use href="#colour-11" transform="translate(12,7)" />
    <use href="#colour-11" transform="translate(9,8)" />
    <use href="#colour-11" transform="translate(11,8)  scale(1,2)" />
    <use href="#colour-11" transform="translate(13,8)" />
    <use href="#colour-11" transform="translate(10,9)  scale(2,1)" />
    <use href="#colour-12" transform="translate(6,8)" />
    <use href="#colour-12" transform="translate(13,11)" />
    <use href="#colour-12" transform="translate(3,13)" />
    <use href="#colour-12" transform="translate(2,14)" />
    <use href="#colour-13" transform="translate(8,8)" />
    <use href="#colour-13" transform="translate(14,8)  scale(1,3)" />
    <use href="#colour-13" transform="translate(6,9)  scale(2,1)" />
    <use href="#colour-13" transform="translate(2,10)  scale(1,2)" />
    <use href="#colour-13" transform="translate(15,10)  scale(2,1)" />
    <use href="#colour-13" transform="translate(15,11)  scale(2,1)" />
    <use href="#colour-13" transform="translate(3,12)" />
    <use href="#colour-13" transform="translate(12,12)  scale(1,2)" />
    <use href="#colour-13" transform="translate(15,12)  scale(2,1)" />
    <use href="#colour-13" transform="translate(4,13)" />
    <use href="#colour-13" transform="translate(15,13)  scale(2,1)" />
    <use href="#colour-13" transform="translate(3,14)  scale(1,3)" />
    <use href="#colour-13" transform="translate(13,14)  scale(2,1)" />
    <use href="#colour-13" transform="translate(2,15)  scale(2,1)" />
    <use href="#colour-13" transform="translate(13,15)  scale(1,3)" />
    <use href="#colour-13" transform="translate(2,16)  scale(2,1)" />
    <use href="#colour-13" transform="translate(12,16)  scale(2,1)" />
    <use href="#colour-13" transform="translate(2,17)  scale(1,2)" />
    <use href="#colour-13" transform="translate(4,17)" />
    <use href="#colour-13" transform="translate(14,17)  scale(1,5)" />
    <use href="#colour-13" transform="translate(5,18)  scale(6,1)" />
    <use href="#colour-13" transform="translate(3,19)  scale(2,1)" />
    <use href="#colour-13" transform="translate(11,19)" />
    <use href="#colour-13" transform="translate(12,20)  scale(3,1)" />
    <use href="#colour-14" transform="translate(10,8)" />
    <use href="#colour-15" transform="translate(12,9)" />
    <use href="#colour-15" transform="translate(11,10)" />
    <use href="#colour-16" transform="translate(4,10)" />
    <use href="#colour-16" transform="translate(5,11)" />
    <use href="#colour-16" transform="translate(9,13)" />
    <use href="#colour-16" transform="translate(6,14)  scale(1,2)" />
    <use href="#colour-16" transform="translate(10,14)" />
    <use href="#colour-16" transform="translate(7,15)" />
    <use href="#colour-16" transform="translate(3,18)" />
    <use href="#colour-16" transform="translate(12,18)" />
    <use href="#colour-17" transform="translate(5,10)" />
    <use href="#colour-17" transform="translate(8,12)" />
    <use href="#colour-17" transform="translate(7,13)" />
    <use href="#colour-17" transform="translate(7,16)" />
    <use href="#colour-18" transform="translate(7,10)  scale(1,3)" />
    <use href="#colour-18" transform="translate(3,11)  scale(2,1)" />
    <use href="#colour-18" transform="translate(6,11)  scale(2,1)" />
    <use href="#colour-18" transform="translate(4,12)  scale(4,1)" />
    <use href="#colour-18" transform="translate(9,12)  scale(3,1)" />
    <use href="#colour-18" transform="translate(8,13)  scale(1,4)" />
    <use href="#colour-18" transform="translate(10,13)  scale(2,1)" />
    <use href="#colour-18" transform="translate(4,14)  scale(2,1)" />
    <use href="#colour-18" transform="translate(7,14)  scale(3,1)" />
    <use href="#colour-18" transform="translate(11,14)  scale(2,1)" />
    <use href="#colour-18" transform="translate(4,15)  scale(2,1)" />
    <use href="#colour-18" transform="translate(9,15)  scale(3,1)" />
    <use href="#colour-18" transform="translate(4,16)  scale(3,1)" />
    <use href="#colour-18" transform="translate(9,16)  scale(2,1)" />
    <use href="#colour-18" transform="translate(5,17)" />
    <use href="#colour-18" transform="translate(12,17)" />
    <use href="#colour-18" transform="translate(11,18)" />
    <use href="#colour-19" transform="translate(5,13)  scale(2,1)" />
    <use href="#colour-19" transform="translate(7,17)" />
    <use href="#colour-19" transform="translate(13,19)" />
</svg>